<svg width="37" height="26" viewBox="0 0 37 26" fill="none" xmlns="http://www.w3.org/2000/svg">
<path fill-rule="evenodd" clip-rule="evenodd" d="M0.537598 1H36.5376V25H0.537598V1Z" fill="#E6262C" stroke="#E6262C" stroke-width="0.09354" stroke-miterlimit="10"/>
<path fill-rule="evenodd" clip-rule="evenodd" d="M20.6912 3.02225C21.9149 2.89649 23.3085 3.27376 23.9543 4.34268C24.6001 5.47449 24.2602 6.8578 23.5804 7.89529C22.8326 9.15285 21.609 10.0331 20.3513 10.8191C19.6035 11.2593 18.7878 11.6994 17.904 11.6994C17.1902 11.668 16.7483 10.9763 16.9523 10.379C17.1562 9.75019 17.4961 9.08997 18.1419 8.7127C18.5498 8.49263 19.1277 8.42975 19.4676 8.74414C19.6375 8.90133 19.6375 9.15285 19.5016 9.31004C19.0597 9.90738 18.3459 10.2846 18.006 10.9449C17.938 11.0706 17.87 11.2593 18.006 11.385C18.1759 11.4793 18.4139 11.4165 18.5838 11.3536C19.3996 11.0706 20.0794 10.599 20.7592 10.096C21.7789 9.34148 22.7307 8.36687 22.9686 7.14075C23.0706 6.60629 22.9006 5.88319 22.3228 5.66312C21.643 5.50593 20.9631 5.82032 20.3853 6.13471C19.5355 6.60629 18.6518 7.07787 17.87 7.67522C17.2922 8.05248 16.7143 8.52407 16.0005 8.58695C15.2527 8.64982 14.5389 7.9896 14.6749 7.29795C14.7429 6.76348 15.0828 6.32334 15.4227 5.91463C16.2045 5.0029 17.2582 4.31124 18.3799 3.80822C19.0597 3.36808 19.8415 3.08512 20.6912 3.02225ZM15.6606 13.8058C16.0685 13.6801 16.4764 14.0888 16.3404 14.466C16.2385 14.8747 15.6266 15.0005 15.3547 14.6861C15.0488 14.4346 15.2187 13.8687 15.6606 13.8058ZM19.5355 14.3088C19.8415 14.2774 20.1474 14.2145 20.4533 14.1831C20.4533 14.5289 20.4533 14.8747 20.4533 15.2206C20.6572 15.2206 20.8612 15.2206 21.0311 15.2206C21.0311 15.4406 21.0311 15.6607 21.0311 15.8808C20.8272 15.8808 20.6232 15.8808 20.4533 15.8808C20.4533 16.541 20.4533 17.1698 20.4533 17.83C20.4533 17.9872 20.4533 18.1444 20.5553 18.2702C20.6912 18.3959 20.8952 18.3959 21.0991 18.4273C21.0991 18.616 21.0991 18.8046 21.0991 18.9932C20.6572 18.9932 20.2154 18.9932 19.8755 18.7103C19.6375 18.5217 19.5695 18.2387 19.5695 17.9558C19.5355 16.7296 19.5355 15.5035 19.5355 14.3088ZM25.042 14.3088C25.3479 14.2774 25.6199 14.2145 25.9258 14.1516C25.9258 15.4406 25.9258 16.7611 25.9258 18.0501C25.9258 18.3645 26.2997 18.3959 26.5376 18.3959C26.5376 18.5845 26.5376 18.7732 26.5376 18.9618C26.0957 18.9618 25.6538 18.9618 25.3139 18.6474C25.076 18.4588 25.008 18.1444 25.008 17.8614C25.042 16.6982 25.008 15.5035 25.042 14.3088ZM11.8877 15.535C12.3635 15.3149 12.8734 15.1263 13.4173 15.1577C14.0291 15.1577 14.6409 15.535 14.7089 16.1009C14.7089 16.8554 14.7769 17.5785 14.7089 18.333C14.267 18.8046 13.5872 19.0247 12.9074 18.9932C12.1256 18.9932 11.4458 18.2702 11.5478 17.5785C11.6158 17.1069 11.9896 16.6982 12.4995 16.5724C12.9414 16.4781 13.3833 16.541 13.8251 16.5096C13.8251 16.2581 13.7572 15.9751 13.4852 15.8808C13.0094 15.7236 12.5335 15.9437 12.1256 16.1009C12.0576 15.9122 11.9896 15.7236 11.8877 15.535ZM17.0202 15.755C17.5981 15.2206 18.4818 15.0319 19.2636 15.1891C19.1617 15.4406 19.0257 15.6607 18.9237 15.9122C18.5498 15.8808 18.1419 15.9122 17.802 16.1009C17.802 17.044 17.802 18.0186 17.802 18.9618C17.4961 18.9618 17.1902 18.9618 16.9183 18.9618C16.9183 18.0501 16.9183 17.1383 16.9183 16.1952C16.8843 16.0065 16.8843 15.8493 17.0202 15.755ZM21.8809 15.6293C22.3568 15.0948 23.2745 15.0634 23.8863 15.4092C24.4982 15.8179 24.5661 16.541 24.5661 17.1698C23.8184 17.1698 23.0706 17.1698 22.2888 17.1698C22.3228 17.5785 22.4587 18.0815 22.9006 18.2702C23.3765 18.4588 23.8523 18.2387 24.2942 18.0501C24.3962 18.2387 24.4642 18.3959 24.5661 18.5845C23.8184 19.0247 22.7646 19.2133 22.0508 18.6474C21.1331 17.8614 21.1671 16.4781 21.8809 15.6293ZM15.3547 15.3463C15.6606 15.3149 15.9325 15.252 16.2385 15.2206C16.2385 16.4467 16.2385 17.6728 16.2385 18.9304C15.9325 18.9304 15.6606 18.9304 15.3547 18.9304C15.3547 17.7357 15.3547 16.541 15.3547 15.3463ZM22.5607 15.9751C22.7646 15.755 23.2065 15.755 23.3765 15.9751C23.5124 16.1323 23.5464 16.3209 23.5804 16.5096C23.1385 16.5096 22.7307 16.5096 22.2888 16.5096C22.3908 16.3524 22.4247 16.1323 22.5607 15.9751ZM12.7374 17.2955C13.0773 17.1069 13.4852 17.2012 13.8251 17.1698C13.7911 17.4842 13.8591 17.7986 13.7911 18.113C13.5872 18.333 13.1793 18.3645 12.9074 18.2702C12.4995 18.113 12.3635 17.5471 12.7374 17.2955Z" fill="white" stroke="white" stroke-width="0.2" stroke-miterlimit="10"/>
<path fill-rule="evenodd" clip-rule="evenodd" d="M16.5015 22.3291L16.6347 21.3638C16.668 21.0975 16.7345 20.7979 16.8011 20.465C16.668 20.7646 16.5348 21.0975 16.4017 21.3305L15.9357 22.2958H15.5695L15.5029 21.3638C15.4696 21.0975 15.4696 20.7979 15.4363 20.465C15.3698 20.7646 15.3032 21.1308 15.2366 21.3638L15.0036 22.3291H14.5376L15.1035 19.999H15.7692L15.8358 20.8978C15.8358 21.1308 15.8691 21.3971 15.8691 21.6301C15.9689 21.3638 16.0688 21.0975 16.1687 20.8978L16.6014 19.999H17.2671L16.9676 22.3291H16.5015Z" fill="white"/>
<path fill-rule="evenodd" clip-rule="evenodd" d="M19.1312 21.2972C19.1312 21.9296 18.6985 22.3624 18.1326 22.3624C17.6999 22.3624 17.4336 22.0961 17.4336 21.6633C17.4336 21.0642 17.833 20.5981 18.4322 20.5981C18.8649 20.5981 19.1312 20.931 19.1312 21.2972ZM17.9329 21.6633C17.9329 21.8631 18.0328 21.9962 18.1992 21.9962C18.4655 21.9962 18.6319 21.5968 18.6319 21.2972C18.6319 21.1307 18.5654 20.9643 18.3656 20.9643C18.066 20.9976 17.9329 21.397 17.9329 21.6633Z" fill="white"/>
<path fill-rule="evenodd" clip-rule="evenodd" d="M19.2644 22.3292L19.4641 21.1974C19.4974 20.9977 19.5307 20.798 19.564 20.6315H19.9967L19.9634 20.8978C20.1299 20.6648 20.3296 20.5649 20.5626 20.5649C20.8289 20.5649 20.9953 20.7314 20.9953 21.031C20.9953 21.0975 20.9953 21.2307 20.962 21.3305L20.7623 22.2959H20.263L20.4295 21.3638C20.4295 21.2973 20.4295 21.2307 20.4295 21.1641C20.4295 21.031 20.3962 20.9644 20.263 20.9644C20.0966 20.9644 19.9301 21.1641 19.8303 21.5303L19.6971 22.2959H19.2644V22.3292Z" fill="white"/>
<path fill-rule="evenodd" clip-rule="evenodd" d="M22.593 22.2624C22.3933 22.3623 22.1603 22.3956 21.9606 22.3956C21.4946 22.3956 21.2283 22.1293 21.2283 21.6965C21.2283 21.1972 21.5944 20.6313 22.1936 20.6313C22.5265 20.6313 22.7595 20.8311 22.7595 21.1307C22.7595 21.5634 22.36 21.7298 21.661 21.6965C21.661 21.7298 21.6943 21.8297 21.7276 21.863C21.7942 21.9628 21.894 21.9961 22.0604 21.9961C22.2269 21.9961 22.3933 21.9628 22.5265 21.8963L22.593 22.2624ZM22.1603 20.9642C21.9273 20.9642 21.7942 21.1639 21.7609 21.2971C22.1603 21.2971 22.3267 21.2638 22.3267 21.0974C22.3267 21.0308 22.2602 20.9642 22.1603 20.9642Z" fill="white"/>
<path fill-rule="evenodd" clip-rule="evenodd" d="M23.525 20.6646L23.6249 21.3969C23.6582 21.5633 23.6582 21.6965 23.6915 21.7963C23.7248 21.6965 23.758 21.5966 23.8246 21.3969L24.1242 20.6646H24.6568L24.0576 21.8962C23.8246 22.3289 23.6249 22.6618 23.4252 22.8615C23.2255 23.0612 22.9924 23.1278 22.8926 23.1611L22.7927 22.7283C22.8593 22.6951 22.9924 22.6618 23.0923 22.5952C23.1922 22.5286 23.292 22.4288 23.3586 22.2956C23.3586 22.2623 23.3586 22.2623 23.3586 22.1958L23.0257 20.6646H23.525Z" fill="white"/>
</svg>
