<svg width="37" height="36" viewBox="0 0 37 36" fill="none" xmlns="http://www.w3.org/2000/svg">
<path d="M13.9944 10.069H22.9589C23.8735 10.069 24.7506 10.4323 25.3973 11.0789C26.044 11.7256 26.4071 12.6027 26.4071 13.5172V22.4828C26.4071 23.3973 26.044 24.2744 25.3973 24.9211C24.7506 25.5677 23.8735 25.931 22.9589 25.931H13.9944C13.0798 25.931 12.2026 25.5677 11.556 24.9211C10.9093 24.2744 10.546 23.3973 10.546 22.4828V13.5172C10.546 12.6027 10.9093 11.7256 11.556 11.0789C12.2026 10.4323 13.0798 10.069 13.9944 10.069ZM13.9944 8C13.2697 7.99988 12.5522 8.14251 11.8827 8.41972C11.2132 8.69693 10.605 9.10331 10.0926 9.61564C9.58015 10.128 9.17367 10.7362 8.89635 11.4057C8.61902 12.0751 8.4762 12.7926 8.4762 13.5172V22.4828C8.4762 23.2074 8.61902 23.9249 8.89635 24.5943C9.17367 25.2638 9.58015 25.872 10.0926 26.3844C10.605 26.8967 11.2132 27.3031 11.8827 27.5803C12.5522 27.8575 13.2697 28.0001 13.9944 28H22.9589C24.4222 28 25.8256 27.4187 26.8603 26.384C27.8949 25.3494 28.4762 23.946 28.4762 22.4828V13.5172C28.4762 12.054 27.8949 10.6506 26.8603 9.61596C25.8256 8.58128 24.4222 8 22.9589 8H13.9944ZM18.4766 22.8271C19.4314 22.8271 20.3649 22.544 21.1588 22.0135C21.9527 21.4831 22.5712 20.7291 22.9366 19.847C23.302 18.9649 23.3976 17.9942 23.2114 17.0577C23.0251 16.1213 22.5654 15.2611 21.8903 14.5859C21.2151 13.9108 20.3549 13.451 19.4184 13.2647C18.482 13.0784 17.5114 13.174 16.6292 13.5394C15.7471 13.9048 14.9931 14.5236 14.4627 15.3175C13.9322 16.1114 13.6491 17.0447 13.6491 17.9995C13.6491 19.2799 14.1577 20.5078 15.063 21.4132C15.9684 22.3185 17.1963 22.8271 18.4766 22.8271ZM18.4766 20.7582C17.931 20.7582 17.3978 20.5964 16.9441 20.2933C16.4905 19.9901 16.1369 19.5593 15.9281 19.0552C15.7193 18.5512 15.6646 17.9965 15.7711 17.4614C15.8775 16.9262 16.1402 16.4347 16.526 16.0489C16.9118 15.6631 17.4034 15.4004 17.9385 15.2939C18.4736 15.1875 19.0283 15.2421 19.5324 15.4509C20.0364 15.6597 20.4672 16.0133 20.7703 16.4669C21.0734 16.9206 21.2353 17.4539 21.2353 17.9995C21.2353 18.7312 20.9447 19.4328 20.4273 19.9502C19.91 20.4675 19.2083 20.7582 18.4766 20.7582ZM23.6496 14.2069C23.9224 14.2069 24.189 14.126 24.4158 13.9744C24.6427 13.8229 24.8195 13.6075 24.9239 13.3554C25.0283 13.1034 25.0556 12.8261 25.0024 12.5585C24.9491 12.2909 24.8177 12.0452 24.6248 11.8523C24.4319 11.6594 24.1861 11.528 23.9185 11.4748C23.651 11.4216 23.3738 11.4489 23.1217 11.5533C22.8697 11.6577 22.6542 11.8345 22.5026 12.0613C22.3511 12.2881 22.2703 12.5548 22.2703 12.8276C22.2701 13.0088 22.3056 13.1882 22.3749 13.3556C22.4441 13.523 22.5458 13.6751 22.6739 13.8032C22.802 13.9313 22.9541 14.0329 23.1215 14.1021C23.2889 14.1714 23.4684 14.207 23.6496 14.2069Z" fill="white"/>
</svg>
