<svg width="37" height="36" viewBox="0 0 37 36" fill="none" xmlns="http://www.w3.org/2000/svg">
<path d="M26.9975 8.00014H9.95485C9.76332 7.99748 9.57314 8.03236 9.39517 8.10276C9.2172 8.17317 9.05493 8.27774 8.91762 8.41049C8.78031 8.54325 8.67065 8.70159 8.59491 8.87647C8.51917 9.05135 8.47883 9.23935 8.4762 9.42974V26.5703C8.47883 26.7606 8.51917 26.9486 8.59491 27.1235C8.67065 27.2984 8.78031 27.4568 8.91762 27.5895C9.05493 27.7223 9.2172 27.8268 9.39517 27.8972C9.57314 27.9676 9.76332 28.0025 9.95485 27.9999H26.9975C27.1891 28.0025 27.3793 27.9676 27.5572 27.8972C27.7352 27.8268 27.8975 27.7223 28.0348 27.5895C28.1721 27.4568 28.2817 27.2984 28.3575 27.1235C28.4332 26.9486 28.4736 26.7606 28.4762 26.5703V9.42974C28.4736 9.23935 28.4332 9.05135 28.3575 8.87647C28.2817 8.70159 28.1721 8.54325 28.0348 8.41049C27.8975 8.27774 27.7352 8.17317 27.5572 8.10276C27.3793 8.03236 27.1891 7.99748 26.9975 8.00014ZM14.5425 24.7406H11.5245V15.7401H14.5425V24.7406ZM13.0335 14.4804C12.8273 14.4804 12.6232 14.44 12.4328 14.3616C12.2424 14.2832 12.0693 14.1683 11.9236 14.0234C11.7778 13.8785 11.6622 13.7065 11.5833 13.5172C11.5044 13.3279 11.4638 13.125 11.4638 12.9201C11.4638 12.7153 11.5044 12.5124 11.5833 12.3231C11.6622 12.1338 11.7778 11.9618 11.9236 11.8169C12.0693 11.672 12.2424 11.5571 12.4328 11.4787C12.6232 11.4003 12.8273 11.3599 13.0335 11.3599C13.2546 11.3349 13.4785 11.3567 13.6905 11.4237C13.9026 11.4907 14.098 11.6015 14.264 11.7488C14.43 11.8961 14.5628 12.0766 14.6537 12.2784C14.7446 12.4803 14.7916 12.699 14.7916 12.9201C14.7916 13.1413 14.7446 13.36 14.6537 13.5619C14.5628 13.7637 14.43 13.9442 14.264 14.0915C14.098 14.2388 13.9026 14.3496 13.6905 14.4166C13.4785 14.4836 13.2546 14.5053 13.0335 14.4804ZM25.4279 24.7406H22.4099V19.9101C22.4099 18.6997 21.9771 17.9105 20.8807 17.9105C20.5414 17.9129 20.2109 18.0186 19.9338 18.2135C19.6568 18.4083 19.4465 18.6829 19.3313 19.0003C19.2526 19.2356 19.2187 19.4834 19.2311 19.731V24.7314H16.2123V15.73H19.2302V16.9997C19.5044 16.5268 19.9032 16.1372 20.3837 15.8729C20.8642 15.6086 21.4081 15.4796 21.9569 15.4998C23.9685 15.4998 25.4279 16.7896 25.4279 19.5602V24.7406Z" fill="white"/>
</svg>
