<svg width="238" height="54" viewBox="0 0 238 54" fill="none" xmlns="http://www.w3.org/2000/svg">
<g clip-path="url(#clip0_857_205)">
<path d="M81.5421 45.7475H88.0185V13.3655H82.9424V20.1828C82.9424 22.6495 82.9862 25.1163 83.0299 27.7176C82.7674 25.1612 82.5048 22.8289 82.1547 20.1828L81.3233 13.3655H74.3656V45.7475H79.3979V35.3422C79.3979 32.8755 79.3979 30.4087 79.3541 27.8522C79.5729 30.3638 79.8355 32.7858 80.1856 35.3422L81.5421 45.7475ZM66.4889 19.6894C66.664 25.2957 66.9265 30.4535 67.2766 36.4186H65.7013C66.0513 30.4535 66.3139 25.2957 66.4889 19.6894ZM67.8017 45.7475H73.753L70.9086 13.3655H62.6819L59.8375 45.7475H65.1761L65.3949 41.8007H67.5391L67.8017 45.7475ZM52.6172 19.8688C52.6172 19.1512 52.7048 18.8821 53.1424 18.8821H53.2736C53.7112 18.8821 53.7987 19.1064 53.7987 19.8688V26.103H59.3999V19.2409C59.3999 14.5316 58.3059 13.1412 54.1051 13.1412H51.8733C47.6725 13.1412 46.5785 14.5316 46.5785 19.2409V39.917C46.5785 44.6263 47.6725 45.9718 51.8733 45.9718H54.1051C58.3059 45.9718 59.3999 44.6263 59.3999 39.917V31.5748H53.7987V39.2442C53.7987 39.917 53.7112 40.2309 53.2736 40.2309H53.1424C52.7048 40.2309 52.6172 39.9618 52.6172 39.2442V19.8688ZM39.6208 45.7475H45.5283V13.3655H39.6208V45.7475ZM32.5755 25.6994C32.5755 26.417 32.4442 26.6861 32.0066 26.6861H31.3503V19.1512H32.0066C32.4442 19.1512 32.5755 19.3755 32.5755 20.1379V25.6994ZM38.483 35.3422C38.483 31.9336 37.9141 30.2741 35.9887 29.6014C37.8704 29.0183 38.483 27.4037 38.483 23.9502V19.4652C38.483 14.7559 37.389 13.3655 33.1881 13.3655H25.399V45.7475H31.3065V32.4718H31.6566C32.2692 32.4718 32.5755 32.9652 32.5755 33.8622V41.8456C32.5755 43.4153 32.6193 44.9402 33.0569 45.7475H39.1832C38.6143 44.4917 38.483 42.9668 38.483 41.3522V35.3422ZM20.9793 19.1512H24.8301V13.3655H15.0718V45.7475H20.9793V32.3372H23.8674V26.5515H20.9793V19.1512ZM7.1514 19.6894C7.32644 25.2957 7.589 30.4535 7.93907 36.4186H6.36374C6.67005 30.4535 6.93261 25.2957 7.1514 19.6894ZM8.42042 45.7475H14.3717L11.5273 13.3655H3.34435L0.5 45.7475H5.83863L6.05742 41.8007H8.20163L8.42042 45.7475Z" fill="#403B3E"/>
<path d="M226.691 39.2442C226.691 39.917 226.56 40.2309 226.166 40.2309H226.035C225.598 40.2309 225.466 39.9618 225.466 39.2442V33.324H219.909V39.917C219.909 44.6263 221.003 45.9718 225.204 45.9718H227.348C231.549 45.9718 232.643 44.6263 232.643 39.917V36.2392C232.643 31.799 231.33 30.0499 228.661 27.1346C226.516 24.8472 225.816 23.9502 225.816 21.9319V19.8688C225.816 19.2409 225.948 18.9718 226.385 18.9718H226.473C226.91 18.9718 227.042 19.1961 227.042 19.9585V24.4884H232.599V19.2409C232.599 14.5316 231.505 13.1412 227.304 13.1412H225.16C220.959 13.1412 219.865 14.5316 219.865 19.2409V21.618C219.865 26.103 221.178 27.8522 223.847 30.7675C225.991 33.0549 226.691 33.9519 226.691 35.9701V39.2442ZM205.206 45.7475H211.113V31.216C211.288 32.6512 211.463 33.8622 211.595 34.804L213.214 45.7027H219.427L216.233 28.5698L219.34 13.3655H213.651L211.638 24.3987C211.463 25.4751 211.376 26.0133 211.157 27.4934V13.3655H205.249V45.7475H205.206ZM198.117 39.2442C198.117 39.917 198.029 40.2309 197.592 40.2309H197.46C197.023 40.2309 196.935 39.9618 196.935 39.2442V19.8688C196.935 19.1512 197.023 18.8821 197.46 18.8821H197.592C198.029 18.8821 198.117 19.1064 198.117 19.8688V39.2442ZM190.94 39.917C190.94 44.6263 192.034 45.9718 196.235 45.9718H198.817C203.018 45.9718 204.112 44.6263 204.112 39.917V19.2409C204.112 14.5316 203.018 13.1412 198.817 13.1412H196.235C192.034 13.1412 190.94 14.5316 190.94 19.2409V39.917ZM184.026 39.2442C184.026 39.917 183.939 40.2309 183.501 40.2309H183.37C182.932 40.2309 182.845 39.9618 182.845 39.2442V19.8688C182.845 19.1512 182.932 18.8821 183.37 18.8821H183.501C183.939 18.8821 184.026 19.1064 184.026 19.8688V39.2442ZM176.85 39.917C176.85 44.6263 177.944 45.9718 182.145 45.9718H184.726C188.927 45.9718 190.021 44.6263 190.021 39.917V19.2409C190.021 14.5316 188.927 13.1412 184.726 13.1412H182.101C177.9 13.1412 176.806 14.5316 176.806 19.2409V39.917H176.85ZM169.98 24.9369C169.98 25.6097 169.848 25.9236 169.411 25.9236H168.754V19.1512H169.411C169.848 19.1512 169.98 19.3755 169.98 20.1379V24.9369ZM169.411 31.6196C169.848 31.6196 169.98 31.8887 169.98 32.6064V39.02C169.98 39.6927 169.848 40.0067 169.411 40.0067H168.754V31.6196H169.411ZM162.803 45.7475H170.592C174.793 45.7475 175.887 44.402 175.887 39.6927V34.4004C175.887 31.0366 175.318 29.422 173.437 28.7492C175.274 28.1213 175.887 26.4618 175.887 23.098V19.4652C175.887 14.7559 174.793 13.3655 170.592 13.3655H162.803V45.7475Z" fill="#403B3E"/>
<path d="M124.076 5.06812C117.819 -0.179394 107.098 -1.48006 99.8335 1.74918L100.927 38.5714C108.104 36.8671 118.344 38.7957 124.12 49.201V5.06812H124.076Z" fill="#D2232A"/>
<path d="M126.789 5.06812C133.091 -0.179394 143.768 -1.48006 151.032 1.74918L149.938 38.5714C142.761 36.8671 132.522 38.7957 126.745 49.201V5.06812H126.789Z" fill="#D2232A"/>
<path d="M97.6018 11.7957C95.4576 12.2442 93.4009 12.8721 91.4755 13.5897L93.8822 46.7342C101.409 44.5366 113.924 43.4602 122.938 54C121.669 47.9901 117.031 43.819 113.005 42.0698C109.373 40.4552 105.172 40.0964 101.321 40.9934L98.4769 41.6661L97.6018 11.7957Z" fill="#403B3E"/>
<path d="M153.264 11.7957C155.408 12.2442 157.464 12.8721 159.39 13.5897L156.983 46.7342C149.456 44.5366 136.941 43.4602 127.927 54C129.196 47.9901 133.834 43.819 137.86 42.0698C141.492 40.4552 145.693 40.0964 149.544 40.9934L152.388 41.6661L153.264 11.7957Z" fill="#403B3E"/>
<path d="M144.555 22.7392C144.599 22.784 144.599 22.6943 144.599 22.6495H144.555C144.555 22.6046 144.555 22.5598 144.555 22.5149L144.512 22.5598C144.512 22.6046 144.468 22.6495 144.555 22.7392L144.512 22.6943L144.555 22.7392ZM136.766 21.1694H136.81H136.766ZM148.931 18.299L148.888 18.2541V18.299H148.844C148.931 18.2541 148.844 18.1644 148.931 18.0747C148.844 18.0299 148.975 17.8953 149.019 17.8505C148.975 17.8056 148.888 17.7608 148.844 17.7608C148.8 17.7608 148.756 17.8056 148.713 17.8505C148.669 17.8953 148.625 17.8953 148.581 17.8505H148.494L148.406 17.9402C148.275 17.9402 148.187 17.8953 148.056 17.9402C148.012 17.9402 147.969 17.9402 147.925 17.9402C147.881 17.9402 147.837 17.8953 147.794 17.8953C147.75 17.8953 147.662 17.9402 147.619 17.985C147.487 18.0299 147.487 17.9402 147.356 17.9402C147.312 17.9402 147.225 17.9402 147.181 17.985C147.093 18.0299 146.962 18.0747 146.875 17.985C146.787 17.9402 146.656 17.7608 146.7 17.6711L146.656 17.6262L146.612 17.5814C146.568 17.5814 146.481 17.5365 146.481 17.5814L146.437 17.5365C146.481 17.5814 146.481 17.5365 146.525 17.4917H146.612C146.743 17.4468 146.7 17.402 146.7 17.3123C146.656 17.2674 146.656 17.2226 146.612 17.1777L146.568 17.2226C146.525 17.2226 146.481 17.1329 146.481 17.0432C146.393 17.088 146.437 16.9086 146.393 16.9086V16.9535L146.35 16.8638L146.262 16.7741C146.218 16.6844 146.131 16.505 146.043 16.505V16.4601L145.999 16.4153H145.956C145.912 16.4601 145.868 16.3704 145.868 16.3704C145.868 16.3256 145.868 16.3256 145.824 16.2359C145.781 16.2359 145.781 16.2807 145.781 16.3256C145.824 16.3256 145.781 16.4153 145.737 16.3704V16.2807C145.737 16.2359 145.693 16.2807 145.693 16.2359C145.693 16.191 145.649 16.1462 145.649 16.0565C145.649 16.0116 145.649 15.9219 145.649 15.8771C145.649 15.7425 145.606 15.5183 145.562 15.3837L145.518 15.3389H145.474L145.518 15.294L145.474 15.2492C145.431 15.2043 145.431 15.1595 145.387 15.1595C145.387 15.1146 145.343 15.1595 145.343 15.1146L145.299 15.0249C145.299 14.9352 145.299 14.8455 145.299 14.7558V14.6212V14.5315C145.299 14.4418 145.299 14.3521 145.299 14.3073L145.343 14.3521H145.299C145.343 14.4418 145.299 14.3073 145.299 14.2624C145.256 14.1727 145.299 14.1279 145.256 14.0382C145.299 13.9933 145.168 13.9036 145.168 13.8588C145.124 13.8139 145.124 13.8139 145.081 13.7691L145.037 13.6794C144.993 13.6345 144.993 13.5 144.993 13.4103C144.993 13.3206 144.993 13.3206 145.081 13.3654C145.081 13.3206 145.037 13.3206 144.993 13.2757C144.905 13.186 144.905 13.0515 144.862 12.9618C144.818 12.7824 144.774 12.6478 144.73 12.4684L144.687 12.3787V12.289V12.1993C144.687 12.1545 144.687 12.1545 144.643 12.1096L144.599 12.0199V11.9751V11.9302L144.643 11.9751C144.643 11.9302 144.599 11.8854 144.555 11.8405C144.512 11.7957 144.512 11.7508 144.468 11.706C144.468 11.6611 144.468 11.6163 144.424 11.5714V11.4817C144.424 11.392 144.293 11.3472 144.424 11.2575L144.468 11.2126V11.1678C144.468 11.2126 144.468 11.3023 144.468 11.3472C144.468 11.392 144.512 11.4369 144.555 11.4817C144.599 11.5266 144.555 11.6163 144.599 11.6611L144.687 11.8405C144.73 11.9302 144.774 11.9302 144.818 12.0199C144.862 11.9751 144.862 11.9302 144.905 11.8854C144.905 11.7957 144.993 11.7508 144.993 11.706C145.037 11.6611 145.081 11.5714 145.081 11.5266C145.124 11.4369 145.08 11.2126 145.037 11.1229C145.037 11.0332 145.037 10.9435 144.993 10.8538C144.949 10.8987 144.862 10.8987 144.818 10.8987C144.774 10.8987 144.774 10.8538 144.73 10.8987H144.687H144.643V10.8538V10.809L144.599 10.8538H144.643H144.599H144.555H144.643C144.512 10.8987 144.555 10.809 144.424 10.7641V10.809H144.38H144.337L144.293 10.7641H144.249H144.293V10.7193L144.337 10.809L144.38 10.8538L144.293 10.7641C144.249 10.7641 144.205 10.7641 144.162 10.7641C144.118 10.7193 144.074 10.6744 144.03 10.7193L144.074 10.7641H143.943H143.899C143.943 10.7641 143.987 10.7193 144.03 10.7193C143.987 10.7193 143.899 10.7641 143.855 10.7193V10.7641L143.811 10.8538H143.855H143.811L143.768 10.809L143.724 10.8538C143.68 10.8987 143.549 10.9435 143.505 10.9435C143.418 10.9435 143.374 10.8538 143.286 10.809C143.243 10.809 143.155 10.7641 143.111 10.7641V10.7193H143.024L142.936 10.6744C142.849 10.6296 142.718 10.5847 142.586 10.5399C142.499 10.495 142.411 10.5399 142.324 10.495L142.28 10.3156C142.236 10.2708 141.974 10.2708 141.974 10.2259C141.93 10.181 141.842 10.1811 141.755 10.1362C141.755 10.0913 141.667 10.0913 141.711 10.0465C141.711 9.9568 141.711 10.0016 141.667 9.91195L141.492 9.7774H141.405H141.361L141.273 9.82225C141.23 9.82225 141.186 9.7774 141.098 9.82225C141.055 9.8671 140.967 9.8671 140.923 9.91195C140.836 9.9568 140.748 10.0465 140.748 10.1362C140.748 10.2259 140.792 10.3156 140.792 10.4053C140.748 10.5847 140.398 10.7193 140.311 10.5399C140.223 10.3605 140.004 10.2708 139.873 10.1811C139.742 10.1362 139.567 10.1362 139.523 9.9568C139.479 9.8671 139.479 9.7774 139.479 9.68769C139.479 9.59799 139.304 9.59799 139.261 9.55314C139.173 9.50829 139.129 9.41859 139.042 9.41859C138.998 9.41859 138.954 9.37374 138.91 9.37374C138.867 9.37374 138.823 9.41859 138.779 9.37374C138.648 9.37374 138.604 9.28404 138.473 9.19434L138.517 9.23919C138.473 9.23919 138.429 9.19434 138.385 9.14949V9.19434C138.342 9.19434 138.298 9.19434 138.298 9.14949H138.342C138.254 9.10464 138.342 9.05979 138.298 9.01494C138.254 8.97009 138.254 9.10464 138.21 9.05979V9.01494H138.123C138.079 8.97009 137.992 8.88039 138.035 8.83554C138.035 8.79069 138.079 8.79068 138.123 8.74583L138.254 8.70098L138.342 8.61128L138.429 8.47673V8.38703V8.34218C138.385 8.29733 138.298 8.25248 138.298 8.16278C138.298 8.11793 138.298 8.07308 138.342 8.02823C138.385 8.02823 138.429 8.02823 138.429 7.98338L138.517 7.89368V7.80397C138.517 7.75912 138.517 7.75912 138.473 7.80397C138.429 7.80397 138.298 7.93853 138.298 7.84882H138.254C138.342 7.84882 138.21 7.75912 138.298 7.75912L138.254 7.71427H138.298C138.254 7.66942 138.21 7.66942 138.167 7.66942C138.21 7.71427 138.167 7.71427 138.167 7.66942V7.62457C138.123 7.62457 138.035 7.62457 137.948 7.62457C137.86 7.66942 137.816 7.71427 137.729 7.71427H137.685H137.598C137.554 7.71427 137.466 7.71427 137.51 7.66942C137.466 7.66942 137.379 7.62457 137.335 7.62457C137.423 7.71427 137.248 7.66942 137.248 7.66942L137.16 7.62457L137.116 7.57972L137.073 7.62457C137.029 7.66942 136.941 7.62457 136.898 7.62457C136.854 7.62457 136.679 7.71427 136.722 7.57972C136.635 7.53487 136.547 7.49002 136.46 7.49002C136.416 7.49002 136.372 7.44517 136.329 7.49002H136.197H136.154H136.066C136.022 7.49002 135.979 7.53487 135.935 7.53487H135.891C135.76 7.53487 135.629 7.53487 135.497 7.53487C135.41 7.53487 135.278 7.57972 135.235 7.62457C135.191 7.66942 135.147 7.75912 135.103 7.71427C135.06 7.66942 135.06 7.66942 135.016 7.66942C134.972 7.75912 134.928 7.66942 134.885 7.71427L134.797 7.75912L134.71 7.84882L134.578 7.89368C134.535 7.89368 134.491 7.93853 134.447 7.89368L134.359 7.84882C134.316 7.84882 134.272 7.84882 134.228 7.80397L134.272 7.84882C134.228 7.84882 134.228 7.75912 134.228 7.71427C134.184 7.75912 134.141 7.80397 134.053 7.75912L133.966 7.71427H133.922C133.791 7.71427 133.747 7.71427 133.659 7.62457C133.616 7.57972 133.572 7.53487 133.572 7.44517L133.528 7.35547L133.353 7.40032C133.266 7.44517 133.222 7.62457 133.178 7.71427C133.134 7.80397 133.003 7.98338 132.915 8.02823C132.828 8.07308 132.697 8.11793 132.609 8.11793C132.522 8.11793 132.478 8.16278 132.39 8.20763C132.347 8.25248 132.172 8.34218 132.172 8.43188C132.128 8.47673 132.172 8.56643 132.084 8.61128C132.04 8.65613 131.997 8.70098 131.953 8.74583C131.909 8.79068 131.909 8.92524 131.909 8.97009L131.865 9.01494L131.909 9.10464C131.953 9.23919 131.734 9.41859 131.646 9.46344C131.559 9.55314 131.471 9.55314 131.384 9.59799C131.296 9.64284 131.296 9.68769 131.209 9.73255C131.165 9.73255 131.121 9.7774 131.034 9.7774C130.99 9.7774 130.859 9.7774 130.815 9.7774C130.771 9.82225 130.727 9.8671 130.684 9.9568C130.64 10.0465 130.596 10.1362 130.509 10.1811C130.421 10.2259 130.334 10.2259 130.29 10.3156C130.246 10.3605 130.202 10.4502 130.202 10.495C130.159 10.5847 130.159 10.6296 130.115 10.7193C130.071 10.809 129.984 10.809 129.94 10.8987C129.852 10.9435 129.765 10.9884 129.721 11.0781L129.809 10.9884C129.809 11.0781 129.677 11.1678 129.634 11.2575L129.59 11.3472C129.546 11.392 129.546 11.4369 129.502 11.4817H129.415C129.327 11.5266 129.196 11.8405 129.24 11.9302C129.24 11.8854 129.283 11.8405 129.283 11.7957L129.327 11.8854C129.327 11.9302 129.327 11.9751 129.371 12.0199V11.9751L129.415 12.0199L129.458 12.1993L129.415 12.289C129.415 12.3339 129.327 12.3787 129.327 12.4236L129.371 12.3787V12.4236H129.415L129.327 12.4684L129.371 12.5133C129.415 12.5581 129.415 12.603 129.415 12.6927C129.415 12.8721 129.415 13.0515 129.283 13.2309C129.196 13.3654 129.196 13.4551 129.152 13.5897C129.108 13.7242 128.933 13.8588 128.802 13.8588L128.846 13.9036C128.933 13.9036 129.021 14.1279 128.977 14.2176L129.021 14.1279H128.977L129.065 14.083H129.108L129.021 14.1279H128.977L128.933 14.1727L129.021 14.1279V14.1727C128.977 14.1727 128.977 14.2624 129.021 14.2176C128.977 14.2624 129.021 14.3073 128.977 14.3521H129.021C129.065 14.3073 129.152 14.3521 129.24 14.3521H129.327C129.283 14.3521 129.021 14.2624 129.065 14.397H128.977L128.933 14.3073H128.89C128.802 14.3521 128.846 14.4418 128.802 14.5315V14.5764H128.846C128.802 14.6212 128.846 14.6212 128.89 14.5764V14.6212V14.6661V14.6212C128.89 14.6661 129.021 14.6661 129.021 14.6212C129.021 14.6661 129.065 14.6661 129.108 14.6661C129.196 14.7109 129.152 14.6212 129.24 14.6212C129.196 14.6212 129.196 14.7109 129.108 14.6661C129.021 14.6661 128.933 14.6661 128.89 14.6212V14.5764C128.802 14.6212 128.802 14.6212 128.846 14.6661C128.89 14.7109 128.89 14.7558 128.933 14.6661L129.021 14.6212L128.933 14.6661V14.7109C128.977 14.7558 128.977 14.7558 129.021 14.7558C129.065 14.7558 129.065 14.711 129.108 14.7558L129.021 14.8007L129.065 14.7558L129.108 14.7109L129.065 14.7558C129.108 14.7558 129.152 14.7109 129.196 14.7109H129.283H129.327V14.7558L129.283 14.7109C129.24 14.7558 129.152 14.6661 129.152 14.7558V14.8007V14.7558H129.196H129.152H129.108H129.065V14.8007L129.108 14.7558V14.8007H129.152C129.108 14.8007 129.065 14.8904 129.152 14.8904V14.8455C129.108 14.9352 129.152 14.8904 129.196 14.8455V14.8904C129.152 14.8904 129.152 14.9352 129.152 14.9352H129.196V14.9801V14.9352H129.24H129.283L129.24 14.9801H129.283V15.0249L129.327 14.9801V15.0249L129.415 14.9801L129.371 15.0698C129.327 15.1146 129.327 15.1146 129.371 15.1146V15.2043H129.415H129.458C129.415 15.2492 129.458 15.2492 129.502 15.2043H129.458C129.415 15.2043 129.502 15.3389 129.546 15.2492C129.546 15.294 129.502 15.3389 129.546 15.294H129.59L129.546 15.3837H129.59H129.634V15.4286V15.4734H129.677V15.5183V15.4734H129.721C129.677 15.4734 129.634 15.5183 129.677 15.5183H129.721H129.677H129.721C129.677 15.5183 129.634 15.5183 129.634 15.5631C129.634 15.608 129.677 15.608 129.634 15.5631H129.677H129.765V15.608L129.677 15.6528L129.721 15.6977L129.634 15.6528C129.634 15.6977 129.677 15.6977 129.634 15.7425H129.677V15.7874V15.8322H129.634L129.677 15.8771C129.634 15.9219 129.721 15.9219 129.765 15.9219L129.721 15.9668C129.721 16.0116 129.765 16.0116 129.809 16.0116C129.809 16.0116 129.677 16.0116 129.721 16.0565H129.677C129.765 16.1013 129.852 16.191 129.94 16.2359L129.984 16.3256C130.027 16.3704 130.115 16.4153 130.159 16.4601V16.505L130.29 16.5947V16.5498L130.334 16.5947C130.377 16.6395 130.509 16.7741 130.509 16.8189C130.552 16.8638 130.596 16.9535 130.684 16.9983C130.771 17.088 130.903 17.1777 130.99 17.2226C131.078 17.2674 131.121 17.2226 131.253 17.2226C131.384 17.1777 131.559 17.1777 131.69 17.1329C131.734 17.1329 131.821 17.1329 131.865 17.1329L131.821 17.088H131.778H131.734H131.821V17.1329C131.909 17.1329 132.04 17.1329 132.128 17.1777C132.084 17.1777 131.997 17.1777 131.953 17.1777H131.865L131.909 17.1329H131.953H131.997H132.04C132.084 17.1329 132.128 17.1329 132.215 17.1777H132.259L132.303 17.2226V17.1777L132.347 17.2226H132.303H132.259L132.347 17.2674L132.478 17.3123H132.522C132.522 17.2674 132.565 17.3123 132.565 17.3123C132.565 17.3123 132.522 17.3571 132.565 17.3571H132.653C132.609 17.402 132.565 17.3571 132.522 17.3571C132.609 17.402 132.74 17.4468 132.828 17.4917C132.872 17.5365 132.872 17.5365 132.915 17.5365C133.003 17.4917 133.09 17.4917 133.178 17.4917C133.222 17.4917 133.266 17.4917 133.309 17.4917C133.353 17.4917 133.441 17.4468 133.484 17.4468C133.572 17.402 133.659 17.4917 133.747 17.4468L133.791 17.402L133.878 17.3571C134.053 17.3123 134.272 17.3571 134.491 17.402L134.535 17.3571C134.535 17.402 134.622 17.3571 134.666 17.3571C134.622 17.3571 134.578 17.3571 134.535 17.402C134.578 17.4468 134.71 17.4468 134.753 17.4468C134.797 17.4468 134.841 17.4917 134.885 17.5365C134.928 17.5814 134.928 17.6262 134.972 17.6711C135.016 17.7159 135.016 17.7159 135.06 17.6711L135.016 17.7159C134.972 17.7159 135.016 17.8056 135.06 17.7608C135.016 17.8056 135.06 17.7608 135.103 17.8056H135.016C134.972 17.8056 135.016 17.8505 135.06 17.8505H135.147L135.103 17.8953H135.06C135.016 17.8505 135.016 17.9402 135.06 17.9402H135.016V18.0299V18.0747L135.06 18.1644H135.103L135.147 18.2093V18.2541V18.2093L135.191 18.2541V18.2093V18.1644V18.2093H135.235C135.147 18.2541 135.322 18.299 135.322 18.2093C135.322 18.2541 135.366 18.299 135.366 18.2093V18.2541V18.2093C135.366 18.2541 135.322 18.299 135.41 18.299C135.41 18.2541 135.41 18.2093 135.41 18.1644V18.299C135.453 18.3438 135.453 18.2541 135.453 18.2541V18.2093L135.497 18.2541V18.2093V18.2541V18.299V18.2093L135.541 18.299C135.585 18.299 135.629 18.3438 135.629 18.2541C135.585 18.299 135.629 18.299 135.672 18.3438C135.716 18.3438 135.847 18.3887 135.847 18.3438L135.804 18.2093L135.847 18.2541V18.299L135.891 18.2541L135.847 18.299V18.3438H135.891V18.2541L135.935 18.3438V18.299V18.3438V18.4784L135.979 18.5232H136.022L136.066 18.5681V18.5232H136.11V18.4784C136.11 18.5232 136.154 18.5232 136.197 18.4784C136.154 18.4784 136.11 18.5232 136.197 18.5232H136.154L136.11 18.4784V18.5232L136.066 18.4784C136.066 18.5232 136.066 18.5681 136.154 18.5681H136.11L136.197 18.6578C136.154 18.7475 136.11 18.882 136.11 19.0166L136.066 19.1063C136.066 19.1511 135.979 19.1511 136.066 19.1511C136.022 19.1511 135.979 19.196 135.935 19.2409L136.022 19.2857L136.066 19.3306V19.3754C136.066 19.3306 136.022 19.3306 135.979 19.3754V19.51V19.4651H135.935C135.979 19.4651 135.935 19.4203 135.935 19.4651C135.891 19.51 135.935 19.4651 135.935 19.5548C135.935 19.5997 136.022 19.6445 136.11 19.6445H136.022V19.6894L135.979 19.6445V19.5997V19.6445L135.935 19.5997V19.5548L135.891 19.6894C135.891 19.7342 135.804 19.8239 135.804 19.8688L135.76 19.9136V19.8688L135.716 19.7791C135.716 19.8239 135.716 19.9136 135.76 19.9136L135.804 20.0033C135.804 20.0482 135.891 20.1379 135.891 20.0482L135.847 20.1379C135.891 20.1827 135.891 20.093 135.935 20.1827H135.891H135.847C135.847 20.1379 135.804 20.093 135.804 20.0482L135.891 20.2724V20.3173L135.935 20.407L135.891 20.3621L135.935 20.407L135.979 20.5415V20.5864C135.979 20.6312 136.022 20.5864 136.066 20.6312H136.11L136.154 20.6761H136.11L136.066 20.6312H136.022C136.066 20.7209 136.154 20.8106 136.241 20.9003C136.285 20.9452 136.329 21.0349 136.372 21.0797C136.416 21.1246 136.46 21.2143 136.504 21.2591C136.547 21.304 136.547 21.3488 136.591 21.3937V21.4385L136.679 21.5282H136.635C136.679 21.5731 136.679 21.6628 136.679 21.7076C136.679 21.7525 136.679 21.7973 136.722 21.8422H136.81L136.854 21.7973C136.898 21.7973 136.941 21.8422 136.985 21.8422C136.898 21.8422 136.81 21.887 136.722 21.887C136.679 21.9319 136.81 22.1561 136.81 22.1561C136.766 22.2907 136.854 22.4252 136.854 22.5598C136.898 22.6495 136.898 22.7392 136.81 22.784H136.854L136.766 22.8737L136.81 22.8289C136.722 22.8289 136.766 22.9186 136.81 22.9634V23.0531C136.81 23.1428 136.898 23.2325 136.898 23.3671C136.941 23.5016 136.898 23.8156 136.766 23.9053L136.722 23.9502H136.635C136.547 23.995 136.547 24.0399 136.504 24.0847L136.416 24.1296C136.372 24.1744 136.372 24.2193 136.372 24.2641L136.329 24.3538C136.329 24.3987 136.285 24.4435 136.285 24.4884C136.285 24.5332 136.241 24.5781 136.197 24.6229C136.197 24.6678 136.154 24.7126 136.154 24.7575C136.11 24.8023 136.066 24.8023 136.066 24.8472V24.9817C136.066 25.0266 136.066 25.1163 136.022 25.1611C135.979 25.3405 135.935 25.5199 135.979 25.6545C136.022 25.7442 136.066 25.789 136.066 25.8787C136.11 25.9684 136.11 26.0133 136.154 26.103C136.197 26.2824 136.241 26.4618 136.329 26.6412C136.372 26.7309 136.372 26.8206 136.416 26.9103C136.46 27 136.504 27.1345 136.46 27.2242L136.416 27.2691V27.2242C136.372 27.2691 136.416 27.3139 136.416 27.4036C136.372 27.4485 136.416 27.5382 136.416 27.583C136.416 27.6279 136.372 27.6279 136.372 27.6727C136.372 27.7624 136.46 27.897 136.416 27.9867C136.416 28.0764 136.372 28.1661 136.372 28.2558C136.372 28.3006 136.372 28.3455 136.372 28.3904C136.372 28.4352 136.46 28.48 136.416 28.5249C136.372 28.5697 136.416 28.794 136.46 28.8389C136.46 28.9286 136.635 29.2874 136.722 29.2425C136.722 29.3322 136.81 29.4219 136.81 29.5116C136.854 29.6462 136.854 29.8256 136.898 29.9601C136.941 30.0947 137.029 30.2292 137.029 30.3638C137.029 30.4086 137.073 30.5432 137.029 30.588L136.985 30.6777C136.941 30.7674 136.898 30.6777 136.898 30.7226L136.854 30.7674V30.8571L136.898 30.9468L136.854 30.902C136.898 30.9468 136.898 31.0365 136.941 31.1262C136.985 31.1711 136.941 31.2159 136.941 31.2159L136.898 31.2608V31.3505V31.2608C136.941 31.2159 136.985 31.2608 136.985 31.3056L136.941 31.3953H137.029C136.985 31.4402 137.16 31.4402 137.073 31.5299C137.116 31.5299 137.116 31.5747 137.16 31.6196L137.291 31.6644L137.379 31.6196L137.423 31.5747C137.466 31.5747 137.554 31.6196 137.51 31.5747C137.554 31.5747 137.598 31.5747 137.641 31.6196H137.729C137.773 31.6196 137.773 31.6644 137.86 31.6196C137.904 31.6196 137.86 31.5747 137.948 31.5747C137.948 31.5299 138.123 31.5299 138.123 31.5747H138.167L138.21 31.6196V31.5747C138.254 31.6196 138.298 31.6196 138.342 31.6196C138.298 31.5299 138.517 31.6196 138.56 31.6644C138.604 31.7093 138.692 31.7541 138.735 31.7541L138.779 31.7093C138.779 31.6644 138.867 31.7093 138.91 31.7093L138.998 31.7541C139.042 31.7541 138.998 31.7541 138.998 31.7093C139.042 31.6196 139.129 31.6644 139.217 31.6644C139.261 31.6644 139.348 31.6644 139.436 31.6196C139.523 31.5747 139.654 31.5299 139.742 31.485C139.829 31.4402 139.917 31.3505 140.004 31.3056C140.092 31.2608 140.179 31.1262 140.267 31.0814C140.355 31.0365 140.442 30.9917 140.53 30.902C140.661 30.8123 140.748 30.6329 140.836 30.5432C140.88 30.4983 140.923 30.4086 140.967 30.3638C141.011 30.3189 141.098 30.2741 141.098 30.2292L141.186 30.1844C141.23 30.1844 141.361 30.1395 141.317 30.0498C141.405 29.9601 141.448 29.7807 141.492 29.691C141.536 29.5565 141.58 29.4668 141.624 29.3322L141.58 29.3771L141.536 29.3322L141.492 29.2425L141.58 29.1977C141.58 29.108 141.667 29.108 141.755 29.0631H141.799C141.974 29.0183 142.192 28.9734 142.367 28.9286C142.411 28.9286 142.586 28.7492 142.542 28.6595H142.499V28.7043V28.6146V28.6595C142.542 28.5698 142.586 28.4801 142.586 28.3904C142.586 28.3006 142.63 28.2109 142.63 28.1212V28.1661V28.0764L142.586 28.1212L142.542 28.2109C142.499 28.1661 142.586 28.0764 142.542 27.9867C142.542 27.9418 142.499 27.8073 142.542 27.7624L142.499 27.8073V27.7176V27.6727C142.499 27.6279 142.499 27.583 142.455 27.583L142.411 27.5382V27.4933V27.4036C142.455 27.4485 142.455 27.3139 142.455 27.3139L142.411 27.2242L142.455 27.2691C142.499 27.3139 142.455 27.3139 142.542 27.3139C142.63 27.3139 142.718 27.1794 142.761 27.1345L142.849 27.0897H142.893H142.936L142.98 27.1345V27.0897C142.98 27.1345 143.024 27.1345 143.024 27.1345C143.068 27.0897 143.111 27.0448 143.199 27C143.243 27 143.286 26.9551 143.243 26.9103L143.286 26.9551C143.33 26.9103 143.374 26.8654 143.461 26.8654C143.505 26.8654 143.68 26.8206 143.68 26.7757C143.68 26.8654 143.855 26.7757 143.855 26.7757H143.987C144.03 26.7309 144.205 26.7309 144.205 26.686H144.249C144.205 26.6412 144.337 26.6412 144.337 26.5515H144.293C144.337 26.5066 144.424 26.4618 144.468 26.4169C144.512 26.3721 144.512 26.3272 144.468 26.3272L144.512 26.2824V26.2375H144.555L144.512 26.1927C144.555 26.2375 144.599 26.1478 144.599 26.103C144.643 26.0581 144.599 26.0581 144.555 26.103V26.0133C144.599 26.0133 144.599 25.9236 144.555 25.9684V25.9236C144.599 25.8787 144.555 25.7442 144.599 25.6993V25.6545C144.643 25.6096 144.643 25.5648 144.599 25.5648V25.5199V25.4751C144.599 25.4302 144.555 25.4302 144.599 25.3854L144.555 25.3405L144.599 25.206C144.555 25.1611 144.643 25.0714 144.555 25.0266L144.643 24.9369L144.687 24.892H144.643L144.687 24.8472L144.643 24.7575L144.599 24.7126V24.6678L144.555 24.6229H144.512L144.468 24.5781V24.6229C144.468 24.5781 144.424 24.5332 144.38 24.5332L144.468 23.7707V23.7259C144.468 23.7259 144.468 23.6362 144.424 23.6362C144.468 23.6362 144.468 23.5016 144.424 23.5465V23.4568H144.468C144.424 23.3671 144.424 23.3222 144.424 23.2325L144.468 23.1428L144.424 23.098L144.38 23.1428L144.424 23.0083C144.468 22.9634 144.555 22.8737 144.424 22.8737V22.8289L144.337 22.7392C144.205 22.6943 144.38 22.4252 144.424 22.3804V22.3355V22.2907V22.3355V22.2907V22.2458H144.468H144.512C144.512 22.201 144.643 22.1113 144.555 22.1113H144.599V22.1561V22.1113C144.643 22.1561 144.643 22.0216 144.643 22.0216C144.687 22.0664 144.687 21.9767 144.73 21.9767C144.774 21.9767 144.774 21.887 144.818 21.887C144.774 21.887 144.818 21.7973 144.905 21.7525C144.949 21.7525 145.08 21.7525 145.037 21.7076H145.081V21.6179V21.6628L145.124 21.6179C145.081 21.6628 145.168 21.6628 145.168 21.6179C145.212 21.6628 145.387 21.4834 145.387 21.4385L145.431 21.3488V21.3937L145.474 21.3488C145.518 21.3488 145.562 21.2591 145.606 21.2591C145.649 21.2143 145.737 21.1694 145.781 21.1246C145.868 21.0349 145.999 20.99 146.087 20.9003C146.218 20.7658 146.481 20.7209 146.656 20.6312C146.875 20.5415 147.006 20.407 147.181 20.2724C147.312 20.1827 147.4 20.0482 147.531 19.9585C147.619 19.8688 147.75 19.7791 147.837 19.6445L147.881 19.5548C147.925 19.51 147.969 19.4651 148.012 19.3754C148.056 19.3306 148.1 19.2408 148.144 19.196C148.187 19.1511 148.231 19.1063 148.319 19.0166L148.406 18.882C148.45 18.8372 148.494 18.7923 148.537 18.7475C148.581 18.7026 148.581 18.6129 148.581 18.5681C148.581 18.5232 148.581 18.4335 148.669 18.4335C148.888 18.299 148.931 18.3438 148.931 18.299ZM142.586 27.1794L142.542 27.2691L142.586 27.1794ZM144.687 22.4252L144.774 22.3355V22.2458L144.73 22.201V22.2458V22.2907V22.3355H144.687H144.73L144.687 22.4252ZM146.787 25.2957V25.3405C146.831 25.2957 146.787 25.206 146.787 25.2957ZM144.599 23.1877V23.1428V23.1877L144.512 23.2325L144.599 23.1877ZM145.474 24.7575H145.518H145.474ZM147.093 26.4169C147.05 26.4618 147.05 26.4618 147.05 26.5066L147.093 26.4169ZM147.356 26.0133C147.268 25.8339 147.312 25.6545 147.312 25.4751C147.312 25.3854 147.312 25.2508 147.268 25.206H147.225C147.225 25.1611 147.181 25.1611 147.225 25.1163L147.181 25.0714H147.137V25.0266H147.093V24.9817L147.137 25.0266C147.137 24.9817 147.137 24.9369 147.093 24.9817H147.05H147.093L147.006 25.0266L146.962 25.0714L146.918 25.0266C146.962 25.0714 146.962 25.1163 146.962 25.206C146.962 25.2508 146.875 25.4302 146.831 25.2957V25.3405H146.787C146.787 25.3854 146.787 25.4302 146.743 25.3854L146.7 25.2957V25.2508L146.656 25.2957V25.3854H146.612C146.656 25.4302 146.612 25.4751 146.612 25.4751V25.3854C146.656 25.4302 146.568 25.4302 146.568 25.4302V25.5199C146.612 25.5199 146.656 25.5648 146.612 25.6096C146.612 25.5648 146.612 25.5648 146.612 25.5648L146.568 25.5199L146.437 25.6545C146.393 25.6545 146.481 25.5648 146.437 25.5199L146.393 25.5648H146.437C146.393 25.6096 146.306 25.6545 146.35 25.6993L146.393 25.7442L146.306 25.789C146.306 25.7442 146.35 25.7442 146.35 25.6993C146.306 25.6545 146.306 25.6993 146.218 25.6993H146.174C146.131 25.6993 146.131 25.7442 146.087 25.789L146.131 25.8339C146.131 25.8339 146.131 25.6545 146.043 25.7442V25.789C145.956 25.7442 145.956 25.7442 145.912 25.8339V25.789C145.868 25.789 145.824 25.8787 145.824 25.7442C145.737 25.7442 145.737 25.789 145.693 25.789C145.518 25.789 145.606 25.789 145.562 25.8787C145.562 25.9684 145.431 26.0581 145.387 26.103C145.343 26.1478 145.387 26.2375 145.343 26.3272C145.343 26.4169 145.387 26.5066 145.343 26.6412C145.343 26.686 145.343 26.7309 145.387 26.7757C145.431 26.8206 145.387 26.8654 145.387 26.8654V26.9551C145.343 27 145.299 27.0448 145.256 27.0897L145.212 27.1794L145.124 27.3139L145.037 27.3588C145.037 27.4036 144.993 27.4485 144.993 27.4933L144.949 27.583L144.905 27.7176C144.862 27.7176 144.905 27.897 144.905 27.9418C144.949 28.0315 144.993 28.1212 144.949 28.1661L144.905 28.2109V28.3006C144.905 28.3903 144.905 28.3903 144.949 28.48C144.949 28.5249 144.949 28.6146 144.993 28.6146L145.081 28.7043L145.037 28.6595C145.037 28.7043 145.081 28.7043 145.124 28.7492C145.168 28.7492 145.168 28.794 145.212 28.8389C145.299 28.9286 145.343 28.8837 145.431 28.8389C145.562 28.794 145.649 28.8389 145.737 28.794L145.868 28.7043C145.912 28.6146 145.956 28.5249 145.999 28.48C146.043 28.4352 146.131 28.3455 146.087 28.3006C146.131 28.1661 146.174 28.0764 146.218 27.9418C146.262 27.8073 146.35 27.7176 146.393 27.6279C146.437 27.583 146.437 27.5382 146.437 27.4933C146.481 27.4485 146.612 27.2691 146.568 27.1794C146.656 27 146.787 26.8206 146.875 26.6412C146.918 26.5066 146.875 26.2824 147.05 26.2375C147.006 26.1927 147.05 26.1927 147.093 26.1478C147.137 26.103 147.05 26.0581 147.05 26.0133V25.9684V25.9236C147.05 25.8787 147.093 25.8339 147.137 25.8787C147.181 25.9236 147.137 26.0581 147.181 26.0581C147.268 26.1927 147.356 26.0581 147.356 26.0133ZM145.693 24.7575H145.649L145.737 24.8472C145.737 24.7575 145.737 24.6678 145.693 24.7575ZM145.868 24.9369V24.9817V25.0266C145.868 25.0714 145.956 24.9369 145.868 24.9369ZM148.581 28.1212C148.537 28.0764 148.581 28.0315 148.537 28.0315L148.406 28.0764C148.362 28.1661 148.581 28.3006 148.581 28.1212ZM149.194 27.9418C149.15 27.7624 149.106 27.9867 149.063 27.9867C149.106 28.0764 149.194 28.0315 149.194 27.9418ZM145.387 24.5781C145.431 24.6678 145.431 24.6229 145.431 24.5781C145.474 24.3538 145.387 24.4435 145.387 24.5781ZM129.546 11.8405L129.59 11.7957L129.546 11.8405ZM138.385 8.61128L138.342 8.52158L138.385 8.61128ZM127.139 12.4236C127.095 12.3787 127.008 12.3787 127.052 12.4236C127.095 12.3787 127.139 12.4684 127.139 12.4236ZM127.227 12.9618C127.227 12.9169 127.183 12.8721 127.139 12.8272V12.9169C127.139 12.9618 127.227 13.0066 127.227 12.9618ZM126.964 12.9169C126.964 12.8721 126.92 12.8272 126.92 12.8721C126.877 12.9618 126.964 12.9618 126.964 12.9169ZM126.92 12.289H126.877H126.92ZM127.358 12.8721C127.271 12.9169 127.358 12.9169 127.358 12.8721V12.8721ZM127.446 12.4684V12.4236V12.4684ZM127.489 12.6478L127.446 12.603C127.402 12.6927 127.489 12.6927 127.489 12.6478ZM129.24 14.3073C129.196 14.3521 129.283 14.3073 129.24 14.3073V14.3073ZM144.818 10.6744L144.774 10.6296L144.818 10.6744ZM138.517 8.25248C138.56 8.25248 138.56 8.25248 138.56 8.20763L138.517 8.25248ZM144.73 10.6296H144.774H144.687H144.73ZM145.868 16.0565L145.956 16.1462C145.999 16.1462 145.956 16.1013 145.956 16.1013L145.912 16.0565L145.868 16.0116V16.0565ZM126.877 12.2442C126.92 12.1993 126.877 12.1545 126.833 12.1993C126.745 12.2442 126.789 12.289 126.877 12.2442ZM135.891 24.3987V24.3538V24.3987ZM135.76 17.7608H135.716H135.76ZM135.716 17.7608H135.672H135.716ZM144.162 25.7442C144.118 25.789 144.205 25.8339 144.162 25.7442V25.7442ZM135.935 19.3754C135.891 19.3754 135.935 19.4651 135.935 19.3754V19.3754ZM136.066 18.2093L136.154 18.1196C136.154 18.0747 136.066 18.1196 136.066 18.1196L136.022 18.1644L135.979 18.2093C135.979 18.2093 136.022 18.2093 136.066 18.2093ZM130.027 15.7874C130.027 15.7425 129.94 15.7425 129.896 15.7425C129.94 15.7874 130.027 15.7874 130.027 15.7874ZM129.196 14.5315H129.152H129.196ZM129.24 14.397L129.196 14.4418C129.24 14.4418 129.24 14.4418 129.24 14.397Z" fill="white"/>
<path d="M235.006 14.711C235.006 14.6661 235.049 14.6213 235.093 14.6213H235.356C235.662 14.6213 235.881 14.7558 235.881 15.0698C235.881 15.3389 235.662 15.5183 235.443 15.5183H235.137C235.093 15.5183 235.049 15.4734 235.049 15.4286V14.711H235.006ZM234.787 14.3073C234.743 14.3073 234.612 14.3522 234.612 14.4867V16.7293C234.612 16.7741 234.612 16.819 234.656 16.819H234.874C234.918 16.819 234.918 16.7741 234.918 16.7293V15.8771C234.918 15.7874 234.962 15.7425 235.006 15.7425H235.093C235.575 15.7425 235.706 15.8771 235.793 16.6396C235.793 16.7741 235.881 16.8638 235.968 16.8638H236.143C236.231 16.8638 236.275 16.8638 236.275 16.819C236.275 16.7741 236.231 16.7741 236.231 16.6844C236.187 16.5947 236.1 15.9219 235.968 15.7874C235.881 15.6528 235.75 15.6528 235.75 15.6528C235.75 15.5631 236.187 15.608 236.187 14.9801C236.187 14.4867 235.75 14.3073 235.312 14.3073H234.787ZM235.443 13.6346C236.406 13.6346 237.106 14.4419 237.106 15.5183C237.106 16.4153 236.494 17.402 235.443 17.402C234.568 17.402 233.693 16.7293 233.693 15.5631C233.693 14.3073 234.612 13.6346 235.443 13.6346ZM235.4 13.3206C234.481 13.3206 233.255 14.0382 233.255 15.6528C233.255 16.505 233.956 17.7608 235.356 17.7608C236.712 17.7608 237.5 16.7293 237.5 15.5631C237.5 14.3522 236.581 13.3206 235.4 13.3206Z" fill="#231F20"/>
</g>
<defs>
<clipPath id="clip0_857_205">
<rect width="237" height="54" fill="white" transform="translate(0.5)"/>
</clipPath>
</defs>
</svg>
