<svg width="33" height="25" viewBox="0 0 33 25" fill="none" xmlns="http://www.w3.org/2000/svg">
<path d="M6.36503 23.9028V22.3246C6.36503 21.6999 5.99017 21.3054 5.30859 21.3054C4.9678 21.3054 4.62701 21.404 4.38846 21.7657C4.18399 21.4698 3.91136 21.3054 3.50241 21.3054C3.22978 21.3054 2.95715 21.3711 2.7186 21.667V21.3383H2.17334V23.8699H2.75268V22.4561C2.75268 21.9958 2.99123 21.7986 3.40018 21.7986C3.80912 21.7986 3.97952 22.0287 3.97952 22.4561V23.8699H4.55886V22.4561C4.55886 21.9958 4.83149 21.7986 5.20635 21.7986C5.58122 21.7986 5.78569 22.0287 5.78569 22.4561V23.8699H6.36503V23.9028ZM14.9188 21.3711H13.9987V20.6149H13.4193V21.3711H12.9082V21.8643H13.4193V23.0151C13.4193 23.6069 13.6579 23.9357 14.3395 23.9357C14.578 23.9357 14.8507 23.8699 15.0551 23.7384L14.8507 23.311C14.6803 23.4096 14.5099 23.4425 14.3395 23.4425C14.0668 23.4425 13.9646 23.2781 13.9646 23.0151V21.8643H14.8847V21.3711H14.9188ZM19.7921 21.3054C19.4513 21.3054 19.2468 21.4698 19.1105 21.667V21.3383H18.5312V23.8699H19.1105V22.4233C19.1105 21.9958 19.315 21.7657 19.6558 21.7657C19.758 21.7657 19.8943 21.7986 19.9966 21.8314L20.1669 21.3054C20.0647 21.3054 19.8943 21.3054 19.7921 21.3054ZM12.397 21.5684C12.1244 21.3711 11.7495 21.3054 11.3405 21.3054C10.693 21.3054 10.25 21.6342 10.25 22.1274C10.25 22.5548 10.5908 22.7849 11.1701 22.8836L11.4428 22.9164C11.7495 22.9822 11.9199 23.048 11.9199 23.1795C11.9199 23.3768 11.7154 23.5083 11.3065 23.5083C10.8975 23.5083 10.6249 23.3768 10.4204 23.2452L10.1478 23.6727C10.4545 23.8699 10.8634 24.0015 11.2724 24.0015C12.0562 24.0015 12.4651 23.6727 12.4651 23.1795C12.4651 22.7192 12.1244 22.489 11.545 22.4233L11.2724 22.3575C11.0338 22.3246 10.8294 22.2917 10.8294 22.1274C10.8294 21.9301 11.0338 21.8314 11.3405 21.8314C11.6813 21.8314 11.988 21.963 12.1584 22.0287L12.397 21.5684ZM27.7324 21.3054C27.3917 21.3054 27.1872 21.4698 27.0509 21.667V21.3383H26.4715V23.8699H27.0509V22.4233C27.0509 21.9958 27.2553 21.7657 27.5961 21.7657C27.6984 21.7657 27.8347 21.7986 27.9369 21.8314L28.1073 21.3054C28.0051 21.3054 27.8347 21.3054 27.7324 21.3054ZM20.3714 22.6534C20.3714 23.4096 20.9167 23.9686 21.7687 23.9686C22.1435 23.9686 22.4161 23.9028 22.6888 23.6727L22.4161 23.2124C22.2117 23.3768 21.9731 23.4425 21.7346 23.4425C21.2575 23.4425 20.9508 23.1137 20.9508 22.6205C20.9508 22.1274 21.2915 21.8314 21.7346 21.7986C21.9731 21.7986 22.2117 21.8643 22.4161 22.0287L22.6888 21.5684C22.4161 21.3711 22.1435 21.2725 21.7687 21.2725C20.9167 21.3054 20.3714 21.8643 20.3714 22.6534ZM25.7218 22.6534V21.3711H25.1425V21.6999C24.938 21.4698 24.6653 21.3383 24.3246 21.3383C23.5748 21.3383 22.9955 21.8972 22.9955 22.6534C22.9955 23.4096 23.5748 23.9686 24.3246 23.9686C24.6994 23.9686 24.9721 23.8371 25.1425 23.6069V23.9357H25.7218V22.6534ZM23.5748 22.6534C23.5748 22.1931 23.8815 21.8314 24.3586 21.8314C24.8357 21.8314 25.1425 22.1602 25.1425 22.6534C25.1425 23.1137 24.8017 23.4754 24.3586 23.4754C23.8815 23.4425 23.5748 23.0808 23.5748 22.6534ZM16.6909 21.3054C15.9071 21.3054 15.3618 21.8314 15.3618 22.6205C15.3618 23.4096 15.9071 23.9357 16.725 23.9357C17.0999 23.9357 17.5088 23.8371 17.7814 23.6069L17.5088 23.2124C17.3043 23.3768 16.9976 23.4754 16.725 23.4754C16.3842 23.4754 16.0093 23.311 15.9412 22.8507H17.9177V22.6534C17.9177 21.8314 17.4406 21.3054 16.6909 21.3054ZM16.6909 21.7986C17.0317 21.7986 17.3043 21.9958 17.3384 22.4233H15.9753C16.0434 22.0616 16.282 21.7986 16.6909 21.7986ZM31.004 22.6534V20.3848H30.4247V21.6999C30.2202 21.4698 29.9476 21.3383 29.6068 21.3383C28.857 21.3383 28.2777 21.8972 28.2777 22.6534C28.2777 23.4096 28.857 23.9686 29.6068 23.9686C29.9816 23.9686 30.2543 23.8371 30.4247 23.6069V23.9357H31.004V22.6534ZM28.8911 22.6534C28.8911 22.1931 29.1978 21.8314 29.6749 21.8314C30.152 21.8314 30.4587 22.1602 30.4587 22.6534C30.4587 23.1137 30.118 23.4754 29.6749 23.4754C29.1978 23.4425 28.8911 23.0808 28.8911 22.6534ZM9.60252 22.6534V21.3711H9.02318V21.6999C8.81871 21.4698 8.54608 21.3383 8.20529 21.3383C7.45555 21.3383 6.87621 21.8972 6.87621 22.6534C6.87621 23.4096 7.45555 23.9686 8.20529 23.9686C8.58016 23.9686 8.85279 23.8371 9.02318 23.6069V23.9357H9.60252V22.6534ZM7.45555 22.6534C7.45555 22.1931 7.76226 21.8314 8.23937 21.8314C8.71647 21.8314 9.02318 22.1602 9.02318 22.6534C9.02318 23.1137 8.68239 23.4754 8.23937 23.4754C7.76226 23.4425 7.45555 23.0808 7.45555 22.6534Z" fill="white"/>
<path d="M20.8826 2.03857H12.2266V17.0314H20.8826V2.03857Z" fill="#FF5F00"/>
<path d="M12.7719 9.53489C12.7719 6.47715 14.2714 3.78108 16.5206 2.03849C14.8507 0.756216 12.7378 0 10.4205 0C4.96784 0 0.537598 4.27426 0.537598 9.53489C0.537598 14.7955 4.96784 19.0698 10.4205 19.0698C12.7378 19.0698 14.8507 18.3136 16.5206 17.0313C14.2373 15.3216 12.7719 12.5926 12.7719 9.53489Z" fill="#EB001B"/>
<path d="M32.5376 9.53489C32.5376 14.7955 28.1074 19.0698 22.6548 19.0698C20.3374 19.0698 18.2245 18.3136 16.5547 17.0313C18.872 15.2887 20.3034 12.5926 20.3034 9.53489C20.3034 6.47715 18.838 3.78108 16.5547 2.03849C18.2245 0.756216 20.3374 0 22.6548 0C28.1074 0 32.5376 4.30714 32.5376 9.53489Z" fill="#F79E1B"/>
</svg>
