<svg width="208" height="556" viewBox="0 0 208 556" fill="none" xmlns="http://www.w3.org/2000/svg">
<g opacity="0.1">
<path d="M86.8867 44.2399C86.6582 37.8383 91.4567 31.551 97.2834 28.8074C110.308 22.6344 123.904 36.1236 120.705 48.6982C119.334 54.2997 114.878 59.1009 109.165 60.8156C101.511 63.1019 94.7699 59.5582 90.5427 53.6138C88.6004 50.7559 87.001 47.4408 86.8867 44.2399ZM92.485 49.4984C99.5685 65.3882 119.562 56.9289 117.049 42.1823C115.678 33.8373 106.081 29.8362 99.2258 32.4655C97.055 33.2657 95.1127 34.7518 93.7417 36.5808C91.2282 40.0103 90.4285 44.9258 92.485 49.4984Z" fill="#FAFAFA"/>
<path d="M103.225 16.69C106.424 17.0329 110.194 15.5468 111.908 12.689C112.707 11.3172 112.936 9.48813 112.821 7.88772C112.593 4.34395 110.765 1.14312 106.881 0.228602C104.024 -0.457288 100.825 0.457233 98.6546 2.51491C93.9703 6.9732 96.0268 16.1184 103.225 16.69Z" fill="#FAFAFA"/>
<path d="M47.9276 13.0318C47.9276 13.9464 48.9559 14.175 49.6414 13.8321C50.0984 13.6034 50.4411 13.2605 50.7839 12.9175C52.0406 11.6601 53.183 10.2883 54.4398 9.03082C54.554 8.91651 54.7825 8.68787 55.011 8.68787C55.1253 8.68787 55.3538 8.80219 55.4681 8.91651C56.7248 10.0597 57.9815 11.4314 59.0098 12.8032C59.4668 13.3748 59.9238 14.0607 60.7235 14.175C61.0663 14.2893 61.5233 14.175 61.7518 13.8321C62.2088 13.2605 61.866 12.6889 61.409 12.1173C60.1522 10.5169 58.7813 9.03082 57.1818 7.65904C56.8391 7.43041 56.4963 7.08746 56.6106 6.6302C56.6106 6.40157 56.8391 6.28726 56.9534 6.17294C58.0959 4.91548 59.581 3.65801 60.6093 2.17191C61.0663 1.48602 60.495 0.685815 59.6952 0.914445C57.9815 1.37171 56.0393 4.11527 55.1253 4.91548C54.8968 5.02979 54.7825 5.25842 54.4398 5.25842C54.2113 5.25842 53.8686 5.14411 53.7543 4.91548C52.3833 3.88664 51.0123 2.74349 49.8698 1.48602C49.5271 1.14308 49.0701 0.685815 48.6131 0.80013C48.2703 0.914445 48.0418 1.37171 48.0418 1.71465C48.0418 2.0576 48.3846 2.40054 48.6131 2.74349C49.8698 4.3439 51.4693 5.71568 53.1831 6.85883L48.3846 11.5458C48.0419 12.1173 47.9276 12.5746 47.9276 13.0318Z" fill="#FAFAFA"/>
<path d="M77.4041 6.74452C77.5184 6.85884 77.7469 7.08747 77.7469 7.3161C77.7469 7.54473 77.6327 7.65904 77.5185 7.77336C76.4902 8.91651 73.8624 10.174 73.4054 11.6601C72.9484 13.4891 75.1191 13.4891 76.2616 12.2316C77.2899 11.0885 78.4324 10.0597 79.4607 8.91651C81.0602 10.5169 82.7739 12.1173 84.4877 13.7177C84.6019 13.8321 84.7162 13.9464 84.9447 14.0607C85.4017 14.4036 85.8586 14.518 86.3156 14.2893C86.7726 14.0607 86.7727 13.4891 86.6584 13.0319C86.4299 12.5746 86.0871 12.2317 85.7444 12.003C84.2591 10.7456 82.8881 9.48809 81.4028 8.11631C81.1743 8.00199 81.0602 7.77336 81.0602 7.54473C81.0602 7.3161 81.1744 7.20178 81.2886 7.08747C82.4311 5.83 83.6878 4.57254 84.8303 3.20075C85.1731 2.85781 85.5159 2.28623 85.1731 1.82897C84.8304 1.37171 83.9164 1.71466 83.4594 2.17192C82.2026 3.31507 80.9458 4.45822 79.6891 5.60137C79.5748 5.71569 79.4607 5.83 79.2322 5.83C79.118 5.83 78.8894 5.71569 78.7752 5.60137C78.2039 5.0298 72.4915 -0.800276 72.4915 1.48603C72.4915 1.94329 72.9484 2.40055 73.2911 2.74349C74.7764 4.11528 76.0331 5.37274 77.4041 6.74452Z" fill="#FAFAFA"/>
<path d="M152.238 8.23062C150.524 9.37377 148.924 10.7456 147.668 12.346C147.439 12.6889 147.211 13.0319 147.096 13.3748C147.096 13.7177 147.211 14.175 147.668 14.2893C148.125 14.4036 148.582 14.0607 148.925 13.6034C150.067 12.346 151.438 11.2028 152.809 10.174C153.037 10.0597 153.266 9.83103 153.494 9.83103C153.723 9.83103 153.951 10.0597 154.18 10.174C155.094 11.0885 157.036 13.7177 158.75 14.175C159.55 14.4036 160.121 13.4891 159.664 12.9175C158.636 11.4314 157.036 10.0597 156.008 8.91651C155.894 8.8022 155.779 8.57357 155.665 8.45925C155.551 8.11631 155.894 7.77336 156.236 7.43041C157.836 6.17295 159.321 4.68685 160.464 2.97212C160.806 2.51486 161.149 1.82897 160.806 1.2574C160.578 0.91445 160.121 0.800135 159.778 0.91445C158.978 1.02877 158.521 1.71466 158.064 2.28623C157.036 3.65801 155.779 5.0298 154.523 6.17295C154.408 6.28726 154.294 6.40158 154.066 6.40158C153.837 6.40158 153.723 6.28726 153.494 6.05863C152.238 4.80117 151.095 3.42938 149.838 2.17192C149.496 1.82897 149.153 1.37171 148.696 1.2574C148.01 1.02877 147.096 1.14308 146.982 2.0576C146.982 2.51486 147.211 2.97212 147.553 3.31507L152.238 8.23062Z" fill="#FAFAFA"/>
<path d="M122.304 12.2319C122.076 12.9178 122.99 13.6036 123.675 13.1464C125.275 12.1175 126.646 10.6315 127.902 9.60262C128.017 9.4883 128.245 9.37399 128.359 9.25967C128.816 9.14536 129.159 9.4883 129.388 9.83125C130.759 11.3173 132.358 12.8034 134.072 13.9466C134.643 14.2895 135.329 14.6325 135.9 14.1752C136.243 13.9466 136.357 13.4893 136.242 13.1464C136.128 12.3462 135.443 11.8889 134.757 11.4317C133.272 10.4028 131.901 9.25967 130.644 8.0022C130.53 7.88789 130.416 7.77357 130.416 7.54494C130.416 7.31631 130.53 7.202 130.759 6.97337C132.13 5.83022 133.501 4.57275 134.757 3.4296C135.1 3.08665 135.557 2.74371 135.786 2.28645C136.128 1.60056 135.9 0.686035 134.872 0.686035C134.415 0.686035 133.958 0.914665 133.615 1.1433L128.702 5.7159C127.56 4.00117 126.074 2.51508 124.475 1.37193C124.132 1.1433 123.789 0.914665 123.447 0.80035C122.99 0.80035 122.533 0.914665 122.418 1.25761C122.304 1.71487 122.647 2.17213 123.104 2.51508C124.475 3.65823 125.617 4.9157 126.646 6.17316C126.76 6.40179 126.988 6.63042 126.988 6.85905C126.988 7.08768 126.76 7.31631 126.646 7.43063C125.617 8.6881 122.875 10.5171 122.304 12.2319Z" fill="#FAFAFA"/>
<path d="M207.877 0V3.08651C205.478 3.08651 199.994 3.08651 197.823 3.20082C197.709 3.20082 197.595 3.20082 197.595 3.31514C196.795 6.74459 196.452 11.5458 196.452 14.7467C196.452 15.5469 195.767 16.1184 194.739 16.2327C190.054 16.8043 184.456 17.4902 178.629 17.4902C178.172 17.4902 177.83 17.4902 177.373 17.4902C177.373 19.0906 177.144 20.5767 176.916 21.9485C176.573 24.2348 176.23 26.6354 176.801 29.9506C176.916 30.2935 176.801 30.6365 176.459 30.9794C176.116 31.3223 175.545 31.6653 174.973 31.6653C171.889 31.8939 168.69 32.1226 165.491 32.1226C163.434 32.1226 161.378 32.0082 159.321 31.8939C158.75 35.7806 158.407 39.7817 158.407 43.7827C158.407 44.5829 157.607 45.2688 156.465 45.3831L142.641 46.069C142.07 49.9557 142.184 55.0999 142.298 58.758V58.9866C142.298 59.7868 141.612 60.4727 140.584 60.587C139.327 60.7013 137.842 60.8157 136.128 60.8157C134.643 60.8157 133.158 60.8157 131.673 60.7013C130.187 60.7013 128.817 60.587 127.331 60.587C126.532 60.587 125.846 60.587 125.275 60.587C125.389 64.5881 125.161 68.4748 124.475 72.4758C124.361 73.276 123.561 73.8476 122.533 73.8476H85.8586C84.8303 73.8476 84.0307 73.276 83.9164 72.4758C83.2309 68.5891 82.8881 64.5881 83.1166 60.587C82.4311 60.587 81.7457 60.587 81.0602 60.587C79.6892 60.587 78.2039 60.587 76.7186 60.7013C75.2334 60.7013 73.7481 60.8157 72.2629 60.8157C70.5491 60.8157 69.1782 60.7013 67.8072 60.587C66.779 60.4727 66.0935 59.7868 66.0935 58.9866V58.758C66.2077 54.9856 66.3219 49.9557 65.7507 46.069L51.9265 45.3831C50.8983 45.3831 50.0984 44.6972 49.9842 43.7827C49.9842 39.896 49.6415 35.895 49.0703 31.8939C47.0138 32.0082 44.9572 32.1226 42.9008 32.1226C39.7018 32.1226 36.617 32.0082 33.418 31.6653C32.8467 31.551 32.2756 31.3223 31.9328 30.9794C31.7043 30.6365 31.59 30.2935 31.59 29.9506C32.1613 26.6354 31.8185 24.2348 31.4758 21.9485C31.2473 20.5767 31.0188 19.2049 31.0188 17.4902C30.676 17.4902 30.219 17.4902 29.762 17.4902C23.9353 17.4902 18.3371 16.8043 13.6529 16.2327C12.6246 16.1184 11.9391 15.4325 11.9391 14.7467C11.9391 11.5458 11.5964 6.85891 10.7966 3.31514C10.7966 3.31514 10.6823 3.20082 10.568 3.20082C8.51155 3.08651 3.02765 3.08651 0.51416 3.08651V0C3.02765 0 8.51164 0 10.7966 0.114315C12.8531 0.22863 14.4526 1.25747 14.7954 2.74356C15.4809 5.48713 15.9378 9.48816 16.0521 13.3749C20.2793 13.9464 24.9636 14.4037 29.762 14.4037C30.9045 14.4037 31.9328 14.4037 32.9611 14.2894H33.0753C33.5323 14.2894 34.1035 14.4037 34.4462 14.6323C34.9032 14.9753 35.1317 15.4325 35.1317 15.8898C35.0175 17.9475 35.246 19.6622 35.4745 21.4912C35.8173 23.5489 36.0458 25.8352 35.8173 28.6931C38.1023 28.8074 40.5015 28.9217 42.7865 28.9217C45.3 28.9217 47.9277 28.8074 50.4412 28.5788C50.5554 28.5788 50.5555 28.5788 50.6698 28.5788C51.698 28.5788 52.4977 29.1504 52.7262 29.9506C53.4117 33.9516 53.7544 38.1813 53.8687 42.2966L67.4644 42.9825C68.3784 42.9825 69.1781 43.5541 69.2924 44.24C70.0921 48.0124 70.0921 53.0422 69.9779 57.5005C70.6634 57.5005 71.3489 57.5005 72.0344 57.5005C73.4054 57.5005 74.7765 57.5005 76.376 57.3862C77.8612 57.3862 79.3463 57.2719 80.8316 57.2719C82.5453 57.2719 83.9163 57.3862 85.2873 57.5005C86.3156 57.6148 87.1153 58.3007 87.0011 59.1009C86.7726 62.8733 86.8868 66.76 87.5723 70.5324H120.705C121.276 66.76 121.504 62.8733 121.276 59.1009C121.276 58.3007 121.961 57.6148 122.99 57.5005C124.246 57.3862 125.732 57.2719 127.445 57.2719C128.931 57.2719 130.416 57.2719 131.901 57.3862C133.386 57.3862 134.757 57.5005 136.243 57.5005C137.042 57.5005 137.728 57.5005 138.299 57.5005C138.185 53.0422 138.185 48.1267 138.985 44.24C139.099 43.5541 139.899 42.9825 140.813 42.9825L154.408 42.2966C154.523 38.1813 154.865 34.0659 155.551 29.9506C155.665 29.1504 156.579 28.5788 157.607 28.5788C157.722 28.5788 157.722 28.5788 157.836 28.5788C160.349 28.8074 162.977 28.9217 165.491 28.9217C167.776 28.9217 170.175 28.8074 172.46 28.6931C172.117 25.8352 172.46 23.6632 172.803 21.4912C173.031 19.6622 173.26 17.9475 173.145 15.8898C173.145 15.4325 173.374 14.9753 173.831 14.6323C174.174 14.4037 174.631 14.2894 175.202 14.2894H175.316C176.344 14.2894 177.487 14.4037 178.515 14.4037C183.314 14.4037 187.998 13.9464 192.225 13.3749C192.339 9.37384 192.796 5.48713 193.482 2.74356C193.825 1.25747 195.424 0.22863 197.481 0.114315C199.88 0 205.364 0 207.877 0Z" fill="#FAFAFA"/>
<path d="M138.882 295.619C171.443 264.525 161.96 261.896 195.207 294.704C198.863 294.704 202.519 294.704 206.289 294.704C198.406 284.187 183.896 272.642 173.157 263.611C166.759 258.924 164.588 262.353 158.304 267.726C148.365 276.528 134.655 285.102 127 295.733C130.884 295.733 134.883 295.733 138.882 295.619Z" fill="#FAFAFA"/>
<path d="M14.882 295.619C47.4431 264.525 37.9603 261.896 71.207 294.704C74.863 294.704 78.519 294.704 82.2893 294.704C74.4061 284.187 59.8964 272.642 49.1569 263.611C42.7589 258.924 40.5882 262.353 34.3044 267.726C24.3647 276.528 10.6547 285.102 3 295.733C6.88449 295.733 10.8833 295.733 14.882 295.619Z" fill="#FAFAFA"/>
<path d="M132.407 261.782C99.8461 292.876 109.329 295.505 76.0823 262.696C72.4263 262.696 68.7702 262.696 65 262.696C72.8832 273.213 87.3929 284.759 98.1324 293.79C104.53 298.477 106.701 295.047 112.985 289.675C122.925 280.872 136.635 272.299 144.289 261.667C140.291 261.553 136.292 261.667 132.407 261.782Z" fill="#FAFAFA"/>
<path d="M5.46057 136.607C4.20382 135.349 2.26155 136.607 3.2898 138.093C7.85978 145.295 13.6866 151.81 19.0563 158.326C24.426 164.957 29.9099 171.473 35.3939 177.989C36.0794 178.789 37.679 179.132 38.4787 178.332C39.3927 177.417 38.8214 176.16 38.1359 175.359C32.652 168.843 27.1679 162.327 21.684 155.812C16.3142 149.41 11.2873 142.551 5.46057 136.607Z" fill="#FAFAFA"/>
<path d="M33.5323 146.209C30.3333 143.008 27.1342 139.464 23.5925 136.606C21.7645 135.12 18.9083 137.064 20.7362 139.007C26.9057 145.866 33.9893 151.925 40.5015 158.441C47.128 165.071 53.5259 171.816 60.1524 178.332C61.2949 179.475 63.0086 178.103 61.9803 176.845C56.1536 169.644 49.8699 163.013 43.472 156.383C40.1587 152.954 36.8455 149.638 33.5323 146.209Z" fill="#FAFAFA"/>
<path d="M160.806 178.103C161.492 178.903 163.091 179.246 164.005 178.446C164.919 177.531 164.348 176.274 163.662 175.474C157.95 168.958 152.352 162.442 146.754 155.926C141.27 149.524 136.128 142.665 130.073 136.721C128.816 135.463 126.874 136.721 127.902 138.207C132.587 145.409 138.642 151.925 144.126 158.441C149.61 164.957 155.208 171.587 160.806 178.103Z" fill="#FAFAFA"/>
<path d="M169.603 156.383C166.176 152.954 162.748 149.524 159.321 146.209C156.008 143.008 152.694 139.464 149.153 136.606C147.21 135.12 144.354 137.064 146.182 139.007C152.58 145.866 159.892 151.925 166.519 158.441C173.259 165.071 179.886 171.816 186.741 178.332C187.883 179.475 189.711 178.103 188.569 176.845C182.628 169.758 176.116 163.013 169.603 156.383Z" fill="#FAFAFA"/>
<path d="M122.19 136.607C116.135 142.551 110.993 149.41 105.509 155.812C99.9112 162.327 94.313 168.958 88.6005 175.359C87.915 176.16 87.3437 177.417 88.2577 178.332C89.0574 179.132 90.657 178.903 91.4567 177.989C97.1692 171.473 102.767 164.957 108.251 158.326C113.735 151.696 119.791 145.18 124.475 138.093C125.389 136.607 123.447 135.349 122.19 136.607Z" fill="#FAFAFA"/>
<path d="M103.225 136.606C99.5686 139.579 96.3695 143.008 93.0563 146.209C89.6288 149.524 86.2013 152.954 82.7738 156.383C76.1474 163.013 69.7493 169.758 63.6941 176.845C62.6658 178.103 64.3797 179.475 65.5222 178.332C72.3771 171.816 79.0036 165.071 85.7443 158.441C92.3708 151.925 99.6828 145.752 106.081 139.007C108.023 137.064 105.053 135.12 103.225 136.606Z" fill="#FAFAFA"/>
<path d="M207.649 136.607C207.306 136.264 206.849 136.149 206.392 136.149C201.022 135.806 195.767 136.721 190.511 136.607C184.799 136.492 179.086 136.378 173.374 136.149C172.574 136.149 170.86 136.035 170.289 136.95C170.061 137.293 170.061 137.636 170.061 137.864C170.175 138.436 170.632 139.007 171.089 139.693C172.46 141.865 174.174 143.809 176.002 145.752C179.543 149.639 183.542 153.182 186.627 157.526C188.683 160.384 190.283 159.584 192.225 157.298C196.224 152.611 200.223 147.924 204.221 143.237C205.364 141.865 206.621 140.379 207.535 138.779C207.763 137.978 208.106 137.178 207.649 136.607Z" fill="#FAFAFA"/>
<path d="M80.4889 136.149C74.7765 136.264 69.064 136.378 63.3515 136.607C58.096 136.721 52.8405 135.806 47.4708 136.149C47.0138 136.149 46.5568 136.264 46.2141 136.607C45.7571 137.178 46.0997 137.978 46.4425 138.664C47.3565 140.265 48.6133 141.751 49.7558 143.123C53.7545 147.81 57.7532 152.496 61.752 157.183C63.6942 159.47 65.2937 160.384 67.3502 157.412C70.435 153.068 74.4336 149.524 77.9754 145.638C79.6891 143.694 81.4029 141.751 82.8882 139.579C83.2309 139.007 83.8022 138.436 83.9164 137.75C83.9164 137.407 83.9164 137.178 83.6879 136.835C83.0024 136.035 81.2887 136.149 80.4889 136.149Z" fill="#FAFAFA"/>
<path d="M126.074 157.526C122.99 161.87 118.991 165.414 115.449 169.301C113.735 171.244 112.022 173.188 110.536 175.36C110.194 175.931 109.623 176.503 109.508 177.189C109.508 177.532 109.508 177.76 109.737 178.103C110.308 179.018 111.907 178.903 112.821 178.903C118.534 178.789 124.246 178.675 129.959 178.446C135.214 178.332 140.47 179.246 145.84 178.903C146.297 178.903 146.754 178.789 147.096 178.446C147.553 177.874 147.211 177.074 146.868 176.388C145.954 174.788 144.697 173.302 143.555 171.93C139.556 167.243 135.557 162.556 131.558 157.869C129.616 155.583 128.017 154.668 126.074 157.526Z" fill="#FAFAFA"/>
<path d="M207.877 158.669V163.699C203.079 168.615 198.28 173.53 193.367 178.446C192.225 179.589 190.511 178.217 191.539 176.96C196.681 170.558 202.165 164.614 207.877 158.669Z" fill="#FAFAFA"/>
<path d="M18.337 554.886C39.0162 555.457 60.0381 553.857 80.7173 553.514C106.195 553.171 131.673 553.285 157.15 553.743C160.578 553.857 164.005 553.857 167.547 553.971C168.575 553.971 170.061 553.743 170.175 552.714C170.289 552.028 169.604 551.456 168.918 550.999C159.55 545.283 148.353 547.798 137.956 548.141C125.16 548.484 112.479 547.227 99.6827 546.769C81.974 546.083 64.2653 546.884 46.5566 547.227C37.7594 547.455 28.848 547.57 20.0508 547.341C14.4525 547.227 8.39735 547.912 3.25611 550.084C-3.02762 552.599 6.56933 554.314 8.51157 554.428C11.7106 554.657 15.0238 554.771 18.337 554.886Z" fill="#FAFAFA"/>
<path d="M207.763 488.697C207.991 487.44 207.077 486.068 203.993 485.382C200.337 484.468 196.566 484.811 192.911 484.582C182.514 483.896 172.117 484.01 161.606 484.01C148.81 484.01 135.9 484.468 123.104 485.039C97.512 486.068 71.8059 487.44 46.0997 485.954C43.8147 485.839 33.1894 485.611 33.9892 490.183C34.6747 494.299 48.0419 493.613 50.8982 493.498C76.1473 493.041 101.282 492.355 126.531 492.127C139.099 492.012 151.781 492.012 164.348 492.127C176.573 492.241 189.026 493.727 201.251 492.698C204.335 492.584 207.42 490.641 207.763 488.697Z" fill="#FAFAFA"/>
<path d="M148.01 504.13C147.782 504.701 147.896 505.273 148.353 506.073L168.918 535.909C169.375 536.595 170.403 536.595 170.86 536.024C172.803 533.737 176.916 529.165 177.373 528.593C180 525.507 182.514 522.42 185.027 519.219C187.541 516.019 190.054 512.932 192.454 509.731C193.139 508.817 195.31 506.988 194.51 505.616C193.71 504.244 190.74 504.587 189.483 504.587C187.998 504.587 186.398 504.701 185.142 505.502C183.771 506.302 182.971 507.674 182.171 508.931C178.972 514.19 175.316 519.105 171.432 523.792C170.975 524.249 170.518 524.821 169.718 524.478C169.375 524.364 169.147 524.021 168.918 523.678C165.605 518.191 161.949 512.932 157.836 508.131C156.693 506.873 155.665 505.502 154.18 504.587C153.037 503.787 151.438 503.101 150.067 503.101C149.039 502.987 148.239 503.444 148.01 504.13Z" fill="#FAFAFA"/>
<path d="M114.421 530.994C116.706 527.221 119.562 522.763 122.533 518.419C123.104 517.505 123.675 516.819 124.475 516.59C124.589 516.59 125.389 516.362 127.446 519.219C128.817 521.163 130.188 523.678 131.33 525.735C132.016 527.107 132.587 528.136 133.044 528.708C137.271 534.766 141.841 537.167 146.982 536.024C148.696 535.681 149.724 534.766 149.953 533.509C150.181 532.251 149.382 531.223 148.925 530.651C142.07 521.849 134.986 513.046 127.903 504.473C127.331 503.787 125.618 501.844 123.561 502.529C122.647 502.872 121.962 503.673 121.619 504.244C121.276 504.816 120.248 505.959 119.105 507.445C107.795 521.62 100.597 531.794 101.854 535.452C101.968 535.795 102.196 536.024 102.425 536.367C103.11 537.053 104.253 537.51 105.51 537.624C105.624 537.624 105.738 537.624 105.967 537.624C109.965 537.51 112.707 533.852 114.421 530.994ZM126.075 505.845C133.272 514.418 140.241 523.106 147.096 531.908C147.325 532.251 147.782 532.823 147.782 533.166C147.782 533.509 147.211 533.852 146.411 533.966C142.184 534.881 138.299 532.709 134.529 527.45C134.186 526.993 133.615 525.85 132.93 524.707C129.616 518.534 126.646 513.618 123.79 514.532C122.304 514.99 121.505 516.247 120.819 517.162C117.734 521.506 114.992 526.078 112.707 529.851C111.108 532.48 108.709 535.566 105.281 535.452C104.71 535.452 104.024 535.338 103.453 534.766C103.453 534.766 103.453 534.766 103.453 534.652C103.339 534.195 103.225 531.908 109.166 523.335C112.822 517.962 117.506 512.132 120.362 508.588C121.619 506.988 122.533 505.959 122.876 505.387C123.218 504.93 123.561 504.473 123.904 504.358C124.018 504.358 124.018 504.358 124.132 504.358C124.818 504.473 125.503 505.273 126.075 505.845Z" fill="#FAFAFA"/>
<path d="M103.225 504.13C103.453 504.701 103.339 505.273 102.882 506.073L82.3169 535.909C81.8599 536.595 80.8317 536.595 80.3747 536.024C78.4325 533.737 74.3194 529.165 73.8624 528.593C71.2347 525.507 68.7212 522.42 66.2078 519.219C63.6943 516.019 61.1808 512.932 58.7815 509.731C58.096 508.817 55.9252 506.988 56.725 505.616C62.7802 495.899 76.833 520.248 79.9177 523.906C80.3747 524.364 80.8317 524.935 81.6315 524.592C81.9742 524.478 82.2026 524.135 82.4311 523.792C84.9446 519.562 87.5724 515.561 90.4286 511.56C92.8279 508.359 95.4557 503.215 99.7972 503.101C100.711 503.101 102.882 503.444 103.225 504.13Z" fill="#FAFAFA"/>
<path d="M54.2115 537.281C54.44 537.167 54.7827 537.167 55.1254 537.167C55.9252 537.053 56.7249 537.053 57.4104 536.481C57.6389 536.252 57.8675 536.024 58.096 535.795C59.1243 534.195 57.7532 532.48 57.0677 531.451C56.9535 531.337 56.8392 531.223 56.7249 531.108C55.9252 529.965 55.1255 528.708 54.3257 527.564C53.8687 526.879 53.4117 526.078 52.8404 525.392C48.1562 518.419 43.2436 511.446 38.1023 504.358C37.7596 503.787 37.074 502.987 36.16 502.644C34.1035 501.958 32.3898 504.015 31.8186 504.587C24.6209 513.161 17.5374 521.963 10.7966 530.765C10.3396 531.337 9.53986 532.366 9.76836 533.623C9.99686 534.881 11.0251 535.795 12.7388 536.138C15.7093 536.824 18.9083 536.138 21.3075 534.309C23.7068 532.594 25.3064 529.965 26.6774 527.564C26.9059 527.107 27.2486 526.65 27.4771 526.193C29.4193 523.106 31.5901 520.02 34.1036 517.047C34.4463 516.59 34.789 516.362 35.0175 516.362C35.246 516.362 35.5888 516.59 35.8173 517.047C36.9598 518.762 38.2165 520.477 39.4733 522.192C41.9868 525.621 44.5003 529.165 46.7853 532.823C47.585 534.08 49.7557 537.624 52.8404 537.624C53.4117 537.51 53.7545 537.51 54.2115 537.281ZM32.7325 515.676C30.219 518.762 27.8198 521.849 25.8775 525.164C25.649 525.621 25.3063 526.078 25.0778 526.536C23.7068 528.822 22.3358 531.223 20.2793 532.709C18.337 534.08 15.7093 534.652 13.3101 534.195C12.5103 534.08 12.0534 533.737 11.9391 533.394C11.8249 533.052 12.2819 532.48 12.6246 532.137C19.4796 523.335 26.4488 514.533 33.6466 506.073C34.2178 505.273 35.1318 504.473 35.8173 504.701C36.1601 504.816 36.5027 505.159 36.8455 505.73C41.9867 512.703 46.8995 519.791 51.5837 526.65C52.0407 527.336 52.4978 528.136 53.069 528.822C53.8687 529.965 54.6685 531.223 55.4682 532.366C55.5825 532.48 55.6968 532.709 55.811 532.823C56.1538 533.394 57.0677 534.423 56.8392 534.881L56.7249 534.995C56.4964 535.224 55.9252 535.224 55.354 535.338C54.897 535.338 54.4399 535.452 53.9829 535.566C52.4977 536.024 50.8983 534.766 49.0703 531.794C46.7853 528.136 44.1575 524.592 41.644 521.048C40.5015 519.334 39.2447 517.619 37.988 516.019C37.3025 514.99 36.5027 514.532 35.5887 514.418H35.4745C34.332 514.304 33.5323 514.761 32.7325 515.676Z" fill="#FAFAFA"/>
<path d="M179.201 421.823C178.972 418.508 180.343 413.364 178.401 410.734C169.375 410.049 158.293 410.506 149.267 410.392C149.724 414.85 146.068 421.823 153.152 421.366C155.094 421.366 179.201 421.937 179.201 421.823Z" fill="#FAFAFA"/>
<path d="M112.25 410.391C112.479 413.592 111.108 418.965 113.05 421.48C122.418 422.166 133.272 421.709 142.641 421.823C142.526 416.107 145.611 410.277 137.157 410.849C134.986 410.849 112.25 410.163 112.25 410.391Z" fill="#FAFAFA"/>
<path d="M112.25 375.982C112.479 379.298 111.108 384.442 113.05 387.071C122.076 387.757 133.158 387.3 142.184 387.414C141.727 382.956 145.383 375.982 138.299 376.44C136.357 376.44 112.25 375.868 112.25 375.982Z" fill="#FAFAFA"/>
<path d="M179.2 387.414C178.972 384.213 180.343 378.84 178.401 376.325C169.032 375.639 158.178 376.097 148.81 375.982C148.924 381.698 145.84 387.528 154.294 386.957C156.465 386.957 179.2 387.528 179.2 387.414Z" fill="#FAFAFA"/>
<path d="M164.577 405.59C168.575 405.59 174.745 406.276 177.83 404.218C180.914 402.504 181.371 392.215 177.601 392.673C162.863 391.644 129.502 392.101 114.421 391.872C109.394 391.644 111.679 400.789 111.908 404.218C112.022 404.79 112.479 405.247 113.05 405.247C123.561 405.59 134.186 405.819 144.697 405.819C151.324 405.819 158.064 405.705 164.577 405.59ZM113.85 394.387C129.045 394.616 162.749 394.159 177.601 395.188C180.115 405.133 170.746 402.847 164.577 402.961C147.782 403.304 130.873 403.304 114.078 402.618C113.621 399.989 113.507 397.131 113.85 394.387Z" fill="#FAFAFA"/>
<path d="M75.0048 372.782C54.4399 365.58 31.3615 389.7 42.6722 411.535C46.8995 420.223 56.3821 426.281 65.7506 426.167C95.4555 426.396 102.31 383.527 75.0048 372.782ZM44.7286 410.391C30.4474 380.327 77.0613 358.149 88.2577 389.815C99.2257 419.88 58.0958 436.684 44.7286 410.391Z" fill="#FAFAFA"/>
<path d="M77.9753 409.591C60.9521 430.511 38.2164 401.018 58.3244 384.671C74.0908 373.239 89.0575 394.502 77.9753 409.591Z" fill="#FAFAFA"/>
<path d="M23.821 421.823C23.5925 418.279 24.735 413.821 23.2497 410.734C16.2805 410.049 7.7117 410.506 0.742471 410.392C1.31372 414.164 -2.1138 421.594 3.71293 421.366C5.19818 421.366 23.821 421.937 23.821 421.823Z" fill="#FAFAFA"/>
<path d="M23.8212 387.414C23.5927 383.87 24.7352 379.412 23.25 376.325C16.0522 375.639 7.71201 376.097 0.400033 375.982C0.628532 380.555 -2.22776 387.528 4.62721 386.957C6.22671 386.957 23.707 387.528 23.8212 387.414Z" fill="#FAFAFA"/>
</g>
</svg>
