<svg width="39" height="36" viewBox="0 0 39 36" fill="none" xmlns="http://www.w3.org/2000/svg">
<g filter="url(#filter0_d_928_680)">
<path d="M15.3945 27.9966C17.0913 28.0012 18.772 27.6319 20.339 26.9101C21.9061 26.1884 23.3283 25.1286 24.5231 23.7923C25.7179 22.456 26.6615 20.8698 27.2991 19.1257C27.9367 17.3816 28.2556 15.5145 28.2374 13.6326C28.2374 13.4097 28.2374 13.1968 28.2243 12.9806C29.1087 12.2644 29.8712 11.3794 30.4762 10.367C29.6531 10.7753 28.7791 11.0433 27.8837 11.1617C28.8286 10.528 29.5341 9.5356 29.8693 8.36866C28.9843 8.95632 28.015 9.371 27.0035 9.59464C26.3841 8.85617 25.5778 8.34268 24.6906 8.12161C23.8034 7.90053 22.8766 7.98219 22.0319 8.35587C21.1873 8.72955 20.4643 9.37778 19.9578 10.2155C19.4513 11.0531 19.185 12.0411 19.1938 13.0497C19.1931 13.4371 19.2322 13.8234 19.3104 14.201C17.5121 14.0982 15.7537 13.5751 14.1503 12.666C12.547 11.757 11.1349 10.4824 10.0066 8.92593C9.42958 10.0376 9.25299 11.3501 9.51224 12.6001C9.77149 13.8502 10.4474 14.9452 11.4043 15.6655C10.6871 15.6407 9.98584 15.4239 9.36045 15.0335C9.36045 15.0547 9.36045 15.0759 9.36045 15.0982C9.35722 16.2591 9.71542 17.3857 10.3745 18.2875C11.0336 19.1893 11.9532 19.8111 12.9779 20.0478C12.3134 20.2506 11.6156 20.2804 10.9391 20.1348C11.2235 21.1354 11.7837 22.0119 12.5407 22.6409C13.2978 23.2699 14.2137 23.6197 15.1594 23.6411C14.224 24.4596 13.1522 25.0656 12.0054 25.4244C10.8587 25.7831 9.6594 25.8876 8.4762 25.7319C10.5365 27.2139 12.9399 28.0017 15.3955 28" fill="white"/>
</g>
<defs>
<filter id="filter0_d_928_680" x="-3.5238" y="0" width="46" height="44" filterUnits="userSpaceOnUse" color-interpolation-filters="sRGB">
<feFlood flood-opacity="0" result="BackgroundImageFix"/>
<feColorMatrix in="SourceAlpha" type="matrix" values="0 0 0 0 0 0 0 0 0 0 0 0 0 0 0 0 0 0 127 0" result="hardAlpha"/>
<feOffset dy="4"/>
<feGaussianBlur stdDeviation="2"/>
<feComposite in2="hardAlpha" operator="out"/>
<feColorMatrix type="matrix" values="0 0 0 0 0 0 0 0 0 0 0 0 0 0 0 0 0 0 0.25 0"/>
<feBlend mode="normal" in2="BackgroundImageFix" result="effect1_dropShadow_928_680"/>
<feBlend mode="normal" in="SourceGraphic" in2="effect1_dropShadow_928_680" result="shape"/>
</filter>
</defs>
</svg>
