<svg width="73" height="24" viewBox="0 0 73 24" fill="none" xmlns="http://www.w3.org/2000/svg">
<path d="M31.7658 23.5059H25.9067L29.5913 0.371094H35.4504L31.7658 23.5059Z" fill="white"/>
<path d="M20.9537 0.37094L15.3363 16.2684L14.6718 12.8662L12.6785 2.41225C12.6785 2.41225 12.4369 0.309082 9.90001 0.309082H0.658403L0.537598 0.742087C0.537598 0.742087 3.37652 1.36066 6.69867 3.40197L11.8329 23.5058H17.9336L27.296 0.37094H20.9537Z" fill="white"/>
<path d="M67.1618 23.5059H72.5377L67.8263 0.371094H63.1148C60.9403 0.371094 60.3967 2.10311 60.3967 2.10311L51.6987 23.5059H57.7994L59.0075 20.0419H66.4974L67.1618 23.5059ZM60.6987 15.2788L63.7793 6.61873L65.5309 15.2788H60.6987Z" fill="white"/>
<path d="M52.1214 5.93835L52.9671 0.989726C52.9671 0.989726 50.3698 0 47.6516 0C44.7523 0 37.806 1.29901 37.806 7.67037C37.806 13.6706 45.9604 13.7324 45.9604 16.8872C45.9604 20.0419 38.6516 19.4852 36.2355 17.5058L35.3899 22.7018C35.3899 22.7018 37.9872 24.0008 42.0342 24.0008C46.0208 24.0008 52.1214 21.8977 52.1214 16.083C52.1214 10.0828 43.9067 9.52611 43.9067 6.86622C43.9067 4.14447 49.5845 4.51562 52.1214 5.93835Z" fill="white"/>
<path d="M14.6718 12.8044L12.6785 2.41225C12.6785 2.41225 12.4369 0.309082 9.90001 0.309082H0.658403L0.537598 0.742087C0.537598 0.742087 5.0074 1.66995 9.23558 5.25771C13.343 8.59803 14.6718 12.8044 14.6718 12.8044Z" fill="#FAA634"/>
</svg>
