<svg width="45" height="36" viewBox="0 0 45 36" fill="none" xmlns="http://www.w3.org/2000/svg">
<path d="M30.6638 8H14.2899C12.748 8 11.2693 8.61834 10.179 9.71897C9.0887 10.8196 8.4762 12.3124 8.4762 13.8689V22.1311C8.4762 23.6876 9.0887 25.1804 10.179 26.281C11.2693 27.3817 12.748 28 14.2899 28H30.6625C32.2044 28 33.6831 27.3817 34.7734 26.281C35.8637 25.1804 36.4762 23.6876 36.4762 22.1311V13.8689C36.4762 12.3124 35.8637 10.8196 34.7734 9.71897C33.6831 8.61834 32.2044 8 30.6625 8H30.6638ZM26.7299 18.405L19.0713 22.092C19.0244 22.1147 18.9725 22.125 18.9206 22.122C18.8686 22.119 18.8183 22.1027 18.7742 22.0747C18.7302 22.0467 18.694 22.0078 18.6689 21.9618C18.6438 21.9158 18.6307 21.8641 18.6308 21.8116V14.2067C18.6308 14.1536 18.6443 14.1014 18.67 14.0551C18.6957 14.0088 18.7328 13.9699 18.7776 13.9422C18.8224 13.9144 18.8736 13.8988 18.9261 13.8967C18.9787 13.8946 19.0309 13.9061 19.0778 13.9302L26.7363 17.8429C26.7878 17.8685 26.8312 17.9081 26.8615 17.9573C26.8919 18.0065 26.9079 18.0633 26.9079 18.1213C26.9079 18.1793 26.8919 18.2361 26.8615 18.2853C26.8312 18.3345 26.7878 18.3741 26.7363 18.3998L26.7299 18.405Z" fill="white"/>
</svg>
